<?xml version="1.0" encoding="UTF-8" standalone="yes"?>
<svg xmlns="http://www.w3.org/2000/svg" height="452" width="452">
<script type="text/ecmascript">
      <![CDATA[
        var shown = 1;
        function click() {
             var seq = document.getElementById("seq");
             if (shown==1) {
               seq.setAttribute("style", "visibility: hidden");
               shown = 0;
             } else {
               seq.setAttribute("style", "visibility: visible");
               shown = 1;
             }
         }
        ]]>
</script>
  <rect style="stroke: white; fill: white" height="452" x="0" y="0" width="452" onclick="click(evt)" />
  <g transform="scale(1.624255,1.624255) translate(21.255119,28.014404)">
    <polyline style="stroke: black; fill: none; stroke-width: 1.5" id="outline" points="
      112.164,-2.048
      111.491,12.937
      110.818,27.922
      110.145,42.907
      109.472,57.892
      108.799,72.877
      108.126,87.862
      92.018,89.635
      79.209,98.162
      72.157,110.912
      57.292,108.899
      42.428,106.885
      34.229,93.570
      19.373,88.689
      4.874,94.547
      -2.421,108.379
      0.931,123.653
      13.349,133.157
      28.968,132.404
      40.415,121.750
      55.279,123.763
      70.143,125.777
      74.909,138.815
      85.025,148.322
      71.561,156.155
      67.720,170.876
      75.271,183.663
      71.281,198.123
      56.985,204.460
      50.154,218.527
      54.013,233.681
      66.740,242.767
      82.326,241.495
      93.411,230.465
      94.762,214.886
      85.740,202.113
      89.731,187.654
      102.772,180.550
      107.025,165.943
      99.484,152.312
      110.578,151.518
      120.992,146.634
      129.225,138.065
      133.985,126.763
      134.391,114.126
      149.376,113.453
      164.361,112.780
      179.345,112.107
      194.330,111.434
      204.775,123.072
      220.264,125.222
      233.484,116.869
      238.193,101.957
      232.166,87.527
      218.251,80.393
      203.017,83.922
      193.657,96.449
      178.673,97.122
      163.688,97.795
      148.703,98.468
      133.718,99.141
      123.111,88.535
      123.784,73.550
      124.457,58.565
      125.130,43.580
      125.803,28.595
      126.476,13.610
      127.149,-1.375
      130.202,-20.514
    " />
    <g style="stroke: black; stroke-width: 1; fill: none;" id="pairs">
      <line id="1,68" x1="112.16415" y1="-2.04759" x2="127.14904" y2="-1.37462" />
      <line id="2,67" x1="111.49117" y1="12.93730" x2="126.47607" y2="13.61028" />
      <line id="3,66" x1="110.81820" y1="27.92220" x2="125.80310" y2="28.59517" />
      <line id="4,65" x1="110.14523" y1="42.90709" x2="125.13013" y2="43.58006" />
      <line id="5,64" x1="109.47226" y1="57.89198" x2="124.45715" y2="58.56496" />
      <line id="6,63" x1="108.79929" y1="72.87688" x2="123.78418" y2="73.54985" />
      <line id="7,62" x1="108.12631" y1="87.86179" x2="123.11121" y2="88.53476" />
      <line id="10,22" x1="72.15663" y1="110.91243" x2="70.14314" y2="125.77667" />
      <line id="11,21" x1="57.29239" y1="108.89893" x2="55.27889" y2="123.76318" />
      <line id="12,20" x1="42.42814" y1="106.88543" x2="40.41464" y2="121.74967" />
      <line id="24,40" x1="85.02499" y1="148.32172" x2="99.48443" y2="152.31227" />
      <line id="27,37" x1="75.27129" y1="183.66342" x2="89.73074" y2="187.65398" />
      <line id="28,36" x1="71.28075" y1="198.12286" x2="85.74019" y2="202.11342" />
      <line id="45,61" x1="134.39078" y1="114.12625" x2="133.71780" y2="99.14136" />
      <line id="46,60" x1="149.37569" y1="113.45328" x2="148.70271" y2="98.46838" />
      <line id="47,59" x1="164.36058" y1="112.78030" x2="163.68761" y2="97.79541" />
      <line id="48,58" x1="179.34547" y1="112.10733" x2="178.67250" y2="97.12244" />
      <line id="49,57" x1="194.33037" y1="111.43436" x2="193.65739" y2="96.44946" />
    </g>
    <g style="font-family: SansSerif" transform="translate(-4.6, 4)" id="seq">
      <text x="112.164" y="-2.048">G</text>
      <text x="111.491" y="12.937">C</text>
      <text x="110.818" y="27.922">U</text>
      <text x="110.145" y="42.907">C</text>
      <text x="109.472" y="57.892">U</text>
      <text x="108.799" y="72.877">U</text>
      <text x="108.126" y="87.862">C</text>
      <text x="92.018" y="89.635">U</text>
      <text x="79.209" y="98.162">A</text>
      <text x="72.157" y="110.912">G</text>
      <text x="57.292" y="108.899">U</text>
      <text x="42.428" y="106.885">A</text>
      <text x="34.229" y="93.570">U</text>
      <text x="19.373" y="88.689">A</text>
      <text x="4.874" y="94.547">C</text>
      <text x="-2.421" y="108.379">U</text>
      <text x="0.931" y="123.653">A</text>
      <text x="13.349" y="133.157">A</text>
      <text x="28.968" y="132.404">U</text>
      <text x="40.415" y="121.750">U</text>
      <text x="55.279" y="123.763">A</text>
      <text x="70.143" y="125.777">C</text>
      <text x="74.909" y="138.815">G</text>
      <text x="85.025" y="148.322">A</text>
      <text x="71.561" y="156.155">C</text>
      <text x="67.720" y="170.876">U</text>
      <text x="75.271" y="183.663">G</text>
      <text x="71.281" y="198.123">A</text>
      <text x="56.985" y="204.460">C</text>
      <text x="50.154" y="218.527">U</text>
      <text x="54.013" y="233.681">U</text>
      <text x="66.740" y="242.767">C</text>
      <text x="82.326" y="241.495">C</text>
      <text x="93.411" y="230.465">A</text>
      <text x="94.762" y="214.886">A</text>
      <text x="85.740" y="202.113">U</text>
      <text x="89.731" y="187.654">C</text>
      <text x="102.772" y="180.550">U</text>
      <text x="107.025" y="165.943">U</text>
      <text x="99.484" y="152.312">U</text>
      <text x="110.578" y="151.518">A</text>
      <text x="120.992" y="146.634">G</text>
      <text x="129.225" y="138.065">A</text>
      <text x="133.985" y="126.763">A</text>
      <text x="134.391" y="114.126">U</text>
      <text x="149.376" y="113.453">C</text>
      <text x="164.361" y="112.780">U</text>
      <text x="179.345" y="112.107">G</text>
      <text x="194.330" y="111.434">G</text>
      <text x="204.775" y="123.072">U</text>
      <text x="220.264" y="125.222">A</text>
      <text x="233.484" y="116.869">C</text>
      <text x="238.193" y="101.957">U</text>
      <text x="232.166" y="87.527">A</text>
      <text x="218.251" y="80.393">A</text>
      <text x="203.017" y="83.922">C</text>
      <text x="193.657" y="96.449">C</text>
      <text x="178.673" y="97.122">C</text>
      <text x="163.688" y="97.795">A</text>
      <text x="148.703" y="98.468">G</text>
      <text x="133.718" y="99.141">A</text>
      <text x="123.111" y="88.535">G</text>
      <text x="123.784" y="73.550">A</text>
      <text x="124.457" y="58.565">A</text>
      <text x="125.130" y="43.580">G</text>
      <text x="125.803" y="28.595">A</text>
      <text x="126.476" y="13.610">G</text>
      <text x="127.149" y="-1.375">C</text>
      <text x="130.202" y="-20.514">A</text>
    </g>
  </g>
</svg>
