<?xml version="1.0" encoding="UTF-8" standalone="yes"?>
<svg xmlns="http://www.w3.org/2000/svg" height="452" width="452">
<script type="text/ecmascript">
      <![CDATA[
        var shown = 1;
        function click() {
             var seq = document.getElementById("seq");
             if (shown==1) {
               seq.setAttribute("style", "visibility: hidden");
               shown = 0;
             } else {
               seq.setAttribute("style", "visibility: visible");
               shown = 1;
             }
         }
        ]]>
</script>
  <rect style="stroke: white; fill: white" height="452" x="0" y="0" width="452" onclick="click(evt)" />
  <g transform="scale(1.566423,1.566423) translate(46.936630,39.106178)">
    <polyline style="stroke: black; fill: none; stroke-width: 1.5" id="outline" points="
      109.427,-15.651
      108.744,-0.667
      108.062,14.318
      107.379,29.302
      106.696,44.287
      106.014,59.271
      105.331,74.256
      88.069,77.836
      75.372,88.716
      69.835,103.528
      54.839,103.869
      39.843,104.211
      24.847,104.552
      15.550,92.128
      0.716,87.574
      -13.950,92.640
      -22.811,105.379
      -22.457,120.892
      -13.027,133.214
      1.856,137.608
      16.467,132.383
      25.188,119.548
      40.184,119.207
      55.180,118.866
      70.176,118.524
      78.892,132.944
      93.873,140.655
      94.556,155.640
      95.239,170.624
      95.921,185.609
      96.604,200.593
      84.973,211.046
      82.833,226.536
      91.195,239.751
      106.110,244.449
      120.536,238.414
      127.661,224.494
      124.122,209.262
      111.589,199.911
      110.906,184.926
      110.223,169.942
      109.540,154.957
      108.858,139.973
      118.293,136.643
      126.472,130.291
      132.426,121.396
      135.366,110.741
      134.784,99.353
      149.471,96.302
      164.157,93.250
      178.843,90.198
      193.529,87.146
      210.267,89.843
      217.493,74.506
      204.755,63.317
      190.478,72.460
      175.791,75.512
      161.105,78.563
      146.419,81.615
      131.732,84.667
      120.315,74.938
      120.998,59.954
      121.681,44.969
      122.363,29.985
      123.046,15.001
      123.729,0.016
      124.412,-14.968
      127.477,-34.106
    " />
    <g style="stroke: black; stroke-width: 1" id="pairs">
      <line id="1,67" x1="109.427" y1="-15.651" x2="124.412" y2="-14.968" />
      <line id="2,66" x1="108.744" y1="-0.667" x2="123.729" y2=" 0.016" />
      <line id="3,65" x1="108.062" y1="14.318" x2="123.046" y2="15.001" />
      <line id="4,64" x1="107.379" y1="29.302" x2="122.363" y2="29.985" />
      <line id="5,63" x1="106.696" y1="44.287" x2="121.681" y2="44.969" />
      <line id="6,62" x1="106.014" y1="59.271" x2="120.998" y2="59.954" />
      <line id="7,61" x1="105.331" y1="74.256" x2="120.315" y2="74.938" />
      <line id="10,25" x1="69.835" y1="103.528" x2="70.176" y2="118.524" />
      <line id="11,24" x1="54.839" y1="103.869" x2="55.180" y2="118.866" />
      <line id="12,23" x1="39.843" y1="104.211" x2="40.184" y2="119.207" />
      <line id="13,22" x1="24.847" y1="104.552" x2="25.188" y2="119.548" />
      <line id="27,43" x1="93.873" y1="140.655" x2="108.858" y2="139.973" />
      <line id="28,42" x1="94.556" y1="155.640" x2="109.540" y2="154.957" />
      <line id="29,41" x1="95.239" y1="170.624" x2="110.223" y2="169.942" />
      <line id="30,40" x1="95.921" y1="185.609" x2="110.906" y2="184.926" />
      <line id="31,39" x1="96.604" y1="200.593" x2="111.589" y2="199.911" />
      <line id="48,60" x1="134.784" y1="99.353" x2="131.732" y2="84.667" />
      <line id="49,59" x1="149.471" y1="96.302" x2="146.419" y2="81.615" />
      <line id="50,58" x1="164.157" y1="93.250" x2="161.105" y2="78.563" />
      <line id="51,57" x1="178.843" y1="90.198" x2="175.791" y2="75.512" />
      <line id="52,56" x1="193.529" y1="87.146" x2="190.478" y2="72.460" />
    </g>
    <g style="font-family: SansSerif" transform="translate(-4.6, 4)" id="seq">
      <text x="109.427" y="-15.651">G</text>
      <text x="108.744" y="-0.667">U</text>
      <text x="108.062" y="14.318">U</text>
      <text x="107.379" y="29.302">U</text>
      <text x="106.696" y="44.287">A</text>
      <text x="106.014" y="59.271">G</text>
      <text x="105.331" y="74.256">A</text>
      <text x="88.069" y="77.836">U</text>
      <text x="75.372" y="88.716">A</text>
      <text x="69.835" y="103.528">G</text>
      <text x="54.839" y="103.869">A</text>
      <text x="39.843" y="104.211">U</text>
      <text x="24.847" y="104.552">U</text>
      <text x="15.550" y="92.128">A</text>
      <text x="0.716" y="87.574">A</text>
      <text x="-13.950" y="92.640">A</text>
      <text x="-22.811" y="105.379">A</text>
      <text x="-22.457" y="120.892">C</text>
      <text x="-13.027" y="133.214">U</text>
      <text x="1.856" y="137.608">U</text>
      <text x="16.467" y="132.383">A</text>
      <text x="25.188" y="119.548">G</text>
      <text x="40.184" y="119.207">A</text>
      <text x="55.180" y="118.866">U</text>
      <text x="70.176" y="118.524">C</text>
      <text x="78.892" y="132.944">G</text>
      <text x="93.873" y="140.655">U</text>
      <text x="94.556" y="155.640">A</text>
      <text x="95.239" y="170.624">G</text>
      <text x="95.921" y="185.609">C</text>
      <text x="96.604" y="200.593">A</text>
      <text x="84.973" y="211.046">U</text>
      <text x="82.833" y="226.536">U</text>
      <text x="91.195" y="239.751">G</text>
      <text x="106.110" y="244.449">A</text>
      <text x="120.536" y="238.414">A</text>
      <text x="127.661" y="224.494">A</text>
      <text x="124.122" y="209.262">A</text>
      <text x="111.589" y="199.911">U</text>
      <text x="110.906" y="184.926">G</text>
      <text x="110.223" y="169.942">C</text>
      <text x="109.540" y="154.957">U</text>
      <text x="108.858" y="139.973">A</text>
      <text x="118.293" y="136.643">A</text>
      <text x="126.472" y="130.291">A</text>
      <text x="132.426" y="121.396">G</text>
      <text x="135.366" y="110.741">U</text>
      <text x="134.784" y="99.353">A</text>
      <text x="149.471" y="96.302">U</text>
      <text x="164.157" y="93.250">U</text>
      <text x="178.843" y="90.198">C</text>
      <text x="193.529" y="87.146">U</text>
      <text x="210.267" y="89.843">A</text>
      <text x="217.493" y="74.506">C</text>
      <text x="204.755" y="63.317">U</text>
      <text x="190.478" y="72.460">A</text>
      <text x="175.791" y="75.512">G</text>
      <text x="161.105" y="78.563">A</text>
      <text x="146.419" y="81.615">A</text>
      <text x="131.732" y="84.667">U</text>
      <text x="120.315" y="74.938">U</text>
      <text x="120.998" y="59.954">U</text>
      <text x="121.681" y="44.969">U</text>
      <text x="122.363" y="29.985">A</text>
      <text x="123.046" y="15.001">A</text>
      <text x="123.729" y="0.016">A</text>
      <text x="124.412" y="-14.968">C</text>
      <text x="127.477" y="-34.106">A</text>
    </g>
  </g>
</svg>
