<?xml version="1.0" encoding="UTF-8" standalone="yes"?>
<svg xmlns="http://www.w3.org/2000/svg" height="452" width="452">
<script type="text/ecmascript">
      <![CDATA[
        var shown = 1;
        function click() {
             var seq = document.getElementById("seq");
             if (shown==1) {
               seq.setAttribute("style", "visibility: hidden");
               shown = 0;
             } else {
               seq.setAttribute("style", "visibility: visible");
               shown = 1;
             }
         }
        ]]>
</script>
  <rect style="stroke: white; fill: white" height="452" x="0" y="0" width="452" onclick="click(evt)" />
  <g transform="scale(1.568962,1.568962) translate(47.174736,38.989906)">
    <polyline style="stroke: black; fill: none; stroke-width: 1.5" id="outline" points="
      110.376,-15.559
      109.673,-0.576
      108.970,14.408
      108.267,29.391
      107.564,44.375
      106.861,59.358
      106.157,74.342
      89.151,77.392
      76.336,87.621
      70.290,101.910
      55.294,101.558
      40.298,101.207
      25.302,100.855
      14.575,89.249
      -1.220,88.712
      -12.712,99.561
      -13.083,115.361
      -2.112,126.738
      13.691,126.941
      24.951,115.851
      39.947,116.203
      54.942,116.554
      69.938,116.906
      77.454,131.122
      91.107,139.618
      90.404,154.602
      89.701,169.585
      88.998,184.569
      88.295,199.552
      75.749,208.887
      72.189,224.114
      79.295,238.043
      93.713,244.099
      108.634,239.420
      117.014,226.217
      114.895,210.724
      103.278,200.256
      103.981,185.272
      104.684,170.288
      105.387,155.305
      106.091,140.321
      116.157,137.632
      125.075,131.576
      131.720,122.636
      135.164,111.664
      134.801,99.810
      149.600,97.360
      164.398,94.909
      176.153,105.222
      191.788,105.514
      203.921,95.648
      206.822,80.281
      199.122,66.671
      184.457,61.242
      169.751,66.559
      161.948,80.111
      147.149,82.561
      132.351,85.012
      121.141,75.045
      121.844,60.061
      122.547,45.078
      123.250,30.094
      123.953,15.111
      124.656,0.127
      125.359,-14.856
      128.451,-33.990
    " />
    <g style="stroke: black; stroke-width: 1" id="pairs">
      <line id="1,65" x1="110.376" y1="-15.559" x2="125.359" y2="-14.856" />
      <line id="2,64" x1="109.673" y1="-0.576" x2="124.656" y2=" 0.127" />
      <line id="3,63" x1="108.970" y1="14.408" x2="123.953" y2="15.111" />
      <line id="4,62" x1="108.267" y1="29.391" x2="123.250" y2="30.094" />
      <line id="5,61" x1="107.564" y1="44.375" x2="122.547" y2="45.078" />
      <line id="6,60" x1="106.861" y1="59.358" x2="121.844" y2="60.061" />
      <line id="7,59" x1="106.157" y1="74.342" x2="121.141" y2="75.045" />
      <line id="10,23" x1="70.290" y1="101.910" x2="69.938" y2="116.906" />
      <line id="11,22" x1="55.294" y1="101.558" x2="54.942" y2="116.554" />
      <line id="12,21" x1="40.298" y1="101.207" x2="39.947" y2="116.203" />
      <line id="13,20" x1="25.302" y1="100.855" x2="24.951" y2="115.851" />
      <line id="25,41" x1="91.107" y1="139.618" x2="106.091" y2="140.321" />
      <line id="26,40" x1="90.404" y1="154.602" x2="105.387" y2="155.305" />
      <line id="27,39" x1="89.701" y1="169.585" x2="104.684" y2="170.288" />
      <line id="28,38" x1="88.998" y1="184.569" x2="103.981" y2="185.272" />
      <line id="29,37" x1="88.295" y1="199.552" x2="103.278" y2="200.256" />
      <line id="46,58" x1="134.801" y1="99.810" x2="132.351" y2="85.012" />
      <line id="47,57" x1="149.600" y1="97.360" x2="147.149" y2="82.561" />
      <line id="48,56" x1="164.398" y1="94.909" x2="161.948" y2="80.111" />
    </g>
    <g style="font-family: SansSerif" transform="translate(-4.6, 4)" id="seq">
      <text x="110.376" y="-15.559">G</text>
      <text x="109.673" y="-0.576">A</text>
      <text x="108.970" y="14.408">A</text>
      <text x="108.267" y="29.391">A</text>
      <text x="107.564" y="44.375">A</text>
      <text x="106.861" y="59.358">G</text>
      <text x="106.157" y="74.342">U</text>
      <text x="89.151" y="77.392">U</text>
      <text x="76.336" y="87.621">A</text>
      <text x="70.290" y="101.910">G</text>
      <text x="55.294" y="101.558">U</text>
      <text x="40.298" y="101.207">U</text>
      <text x="25.302" y="100.855">U</text>
      <text x="14.575" y="89.249">A</text>
      <text x="-1.220" y="88.712">A</text>
      <text x="-12.712" y="99.561">G</text>
      <text x="-13.083" y="115.361">U</text>
      <text x="-2.112" y="126.738">A</text>
      <text x="13.691" y="126.941">A</text>
      <text x="24.951" y="115.851">A</text>
      <text x="39.947" y="116.203">A</text>
      <text x="54.942" y="116.554">A</text>
      <text x="69.938" y="116.906">U</text>
      <text x="77.454" y="131.122">A</text>
      <text x="91.107" y="139.618">C</text>
      <text x="90.404" y="154.602">U</text>
      <text x="89.701" y="169.585">G</text>
      <text x="88.998" y="184.569">U</text>
      <text x="88.295" y="199.552">U</text>
      <text x="75.749" y="208.887">U</text>
      <text x="72.189" y="224.114">U</text>
      <text x="79.295" y="238.043">G</text>
      <text x="93.713" y="244.099">U</text>
      <text x="108.634" y="239.420">G</text>
      <text x="117.014" y="226.217">G</text>
      <text x="114.895" y="210.724">U</text>
      <text x="103.278" y="200.256">A</text>
      <text x="103.981" y="185.272">G</text>
      <text x="104.684" y="170.288">C</text>
      <text x="105.387" y="155.305">A</text>
      <text x="106.091" y="140.321">G</text>
      <text x="116.157" y="137.632">G</text>
      <text x="125.075" y="131.576">G</text>
      <text x="131.720" y="122.636">A</text>
      <text x="135.164" y="111.664">U</text>
      <text x="134.801" y="99.810">U</text>
      <text x="149.600" y="97.360">A</text>
      <text x="164.398" y="94.909">A</text>
      <text x="176.153" y="105.222">U</text>
      <text x="191.788" y="105.514">U</text>
      <text x="203.921" y="95.648">U</text>
      <text x="206.822" y="80.281">U</text>
      <text x="199.122" y="66.671">G</text>
      <text x="184.457" y="61.242">U</text>
      <text x="169.751" y="66.559">U</text>
      <text x="161.948" y="80.111">U</text>
      <text x="147.149" y="82.561">U</text>
      <text x="132.351" y="85.012">A</text>
      <text x="121.141" y="75.045">A</text>
      <text x="121.844" y="60.061">C</text>
      <text x="122.547" y="45.078">U</text>
      <text x="123.250" y="30.094">U</text>
      <text x="123.953" y="15.111">U</text>
      <text x="124.656" y="0.127">U</text>
      <text x="125.359" y="-14.856">U</text>
      <text x="128.451" y="-33.990">A</text>
    </g>
  </g>
</svg>
