<?xml version="1.0" encoding="UTF-8" standalone="yes"?>
<svg xmlns="http://www.w3.org/2000/svg" height="452" width="452">
<script type="text/ecmascript">
      <![CDATA[
        var shown = 1;
        function click() {
             var seq = document.getElementById("seq");
             if (shown==1) {
               seq.setAttribute("style", "visibility: hidden");
               shown = 0;
             } else {
               seq.setAttribute("style", "visibility: visible");
               shown = 1;
             }
         }
        ]]>
</script>
  <rect style="stroke: white; fill: white" height="452" x="0" y="0" width="452" onclick="click(evt)" />
  <g transform="scale(1.574343,1.574343) translate(33.584106,37.657677)">
    <polyline style="stroke: black; fill: none; stroke-width: 1.5" id="outline" points="
      111.246,-14.191
      110.573,0.794
      109.900,15.779
      109.227,30.764
      108.554,45.749
      107.882,60.734
      107.209,75.719
      90.255,78.154
      77.061,87.715
      70.214,101.578
      55.275,100.233
      40.335,98.888
      32.492,85.499
      18.264,79.308
      3.121,82.695
      -7.114,94.358
      -8.505,109.813
      -0.517,123.116
      13.778,129.153
      28.883,125.602
      38.990,113.828
      53.930,115.173
      68.870,116.517
      74.948,130.863
      87.160,140.539
      84.482,155.298
      81.803,170.057
      79.125,184.816
      76.447,199.575
      62.777,207.168
      57.234,221.791
      62.436,236.538
      75.926,244.446
      91.335,241.782
      101.387,229.803
      101.336,214.166
      91.206,202.253
      93.884,187.494
      96.562,172.735
      99.241,157.976
      101.919,143.217
      111.417,142.078
      120.386,138.060
      127.952,131.383
      133.328,122.536
      135.898,112.236
      135.279,101.376
      150.143,99.362
      165.007,97.349
      179.871,95.335
      194.736,93.322
      208.320,101.857
      223.414,96.423
      228.440,81.188
      219.542,67.838
      203.546,66.616
      192.722,78.458
      177.858,80.471
      162.994,82.485
      148.129,84.498
      133.265,86.512
      122.193,76.391
      122.866,61.407
      123.539,46.422
      124.212,31.437
      124.885,16.452
      125.558,1.467
      126.231,-13.518
      129.284,-32.658
    " />
    <g style="stroke: black; stroke-width: 1" id="pairs">
      <line id="1,68" x1="111.246" y1="-14.191" x2="126.231" y2="-13.518" />
      <line id="2,67" x1="110.573" y1=" 0.794" x2="125.558" y2=" 1.467" />
      <line id="3,66" x1="109.900" y1="15.779" x2="124.885" y2="16.452" />
      <line id="4,65" x1="109.227" y1="30.764" x2="124.212" y2="31.437" />
      <line id="5,64" x1="108.554" y1="45.749" x2="123.539" y2="46.422" />
      <line id="6,63" x1="107.882" y1="60.734" x2="122.866" y2="61.407" />
      <line id="7,62" x1="107.209" y1="75.719" x2="122.193" y2="76.391" />
      <line id="10,23" x1="70.214" y1="101.578" x2="68.870" y2="116.517" />
      <line id="11,22" x1="55.275" y1="100.233" x2="53.930" y2="115.173" />
      <line id="12,21" x1="40.335" y1="98.888" x2="38.990" y2="113.828" />
      <line id="25,41" x1="87.160" y1="140.539" x2="101.919" y2="143.217" />
      <line id="26,40" x1="84.482" y1="155.298" x2="99.241" y2="157.976" />
      <line id="27,39" x1="81.803" y1="170.057" x2="96.562" y2="172.735" />
      <line id="28,38" x1="79.125" y1="184.816" x2="93.884" y2="187.494" />
      <line id="29,37" x1="76.447" y1="199.575" x2="91.206" y2="202.253" />
      <line id="47,61" x1="135.279" y1="101.376" x2="133.265" y2="86.512" />
      <line id="48,60" x1="150.143" y1="99.362" x2="148.129" y2="84.498" />
      <line id="49,59" x1="165.007" y1="97.349" x2="162.994" y2="82.485" />
      <line id="50,58" x1="179.871" y1="95.335" x2="177.858" y2="80.471" />
      <line id="51,57" x1="194.736" y1="93.322" x2="192.722" y2="78.458" />
    </g>
    <g style="font-family: SansSerif" transform="translate(-4.6, 4)" id="seq">
      <text x="111.246" y="-14.191">A</text>
      <text x="110.573" y="0.794">G</text>
      <text x="109.900" y="15.779">U</text>
      <text x="109.227" y="30.764">A</text>
      <text x="108.554" y="45.749">A</text>
      <text x="107.882" y="60.734">G</text>
      <text x="107.209" y="75.719">G</text>
      <text x="90.255" y="78.154">U</text>
      <text x="77.061" y="87.715">G</text>
      <text x="70.214" y="101.578">C</text>
      <text x="55.275" y="100.233">C</text>
      <text x="40.335" y="98.888">A</text>
      <text x="32.492" y="85.499">G</text>
      <text x="18.264" y="79.308">A</text>
      <text x="3.121" y="82.695">A</text>
      <text x="-7.114" y="94.358">C</text>
      <text x="-8.505" y="109.813">A</text>
      <text x="-0.517" y="123.116">U</text>
      <text x="13.778" y="129.153">U</text>
      <text x="28.883" y="125.602">A</text>
      <text x="38.990" y="113.828">U</text>
      <text x="53.930" y="115.173">G</text>
      <text x="68.870" y="116.517">G</text>
      <text x="74.948" y="130.863">G</text>
      <text x="87.160" y="140.539">U</text>
      <text x="84.482" y="155.298">U</text>
      <text x="81.803" y="170.057">A</text>
      <text x="79.125" y="184.816">C</text>
      <text x="76.447" y="199.575">A</text>
      <text x="62.777" y="207.168">U</text>
      <text x="57.234" y="221.791">U</text>
      <text x="62.436" y="236.538">G</text>
      <text x="75.926" y="244.446">A</text>
      <text x="91.335" y="241.782">U</text>
      <text x="101.387" y="229.803">G</text>
      <text x="101.336" y="214.166">U</text>
      <text x="91.206" y="202.253">U</text>
      <text x="93.884" y="187.494">G</text>
      <text x="96.562" y="172.735">U</text>
      <text x="99.241" y="157.976">A</text>
      <text x="101.919" y="143.217">G</text>
      <text x="111.417" y="142.078">A</text>
      <text x="120.386" y="138.060">A</text>
      <text x="127.952" y="131.383">U</text>
      <text x="133.328" y="122.536">A</text>
      <text x="135.898" y="112.236">U</text>
      <text x="135.279" y="101.376">A</text>
      <text x="150.143" y="99.362">G</text>
      <text x="165.007" y="97.349">G</text>
      <text x="179.871" y="95.335">A</text>
      <text x="194.736" y="93.322">C</text>
      <text x="208.320" y="101.857">A</text>
      <text x="223.414" y="96.423">A</text>
      <text x="228.440" y="81.188">A</text>
      <text x="219.542" y="67.838">G</text>
      <text x="203.546" y="66.616">A</text>
      <text x="192.722" y="78.458">G</text>
      <text x="177.858" y="80.471">U</text>
      <text x="162.994" y="82.485">C</text>
      <text x="148.129" y="84.498">U</text>
      <text x="133.265" y="86.512">U</text>
      <text x="122.193" y="76.391">U</text>
      <text x="122.866" y="61.407">C</text>
      <text x="123.539" y="46.422">U</text>
      <text x="124.212" y="31.437">U</text>
      <text x="124.885" y="16.452">A</text>
      <text x="125.558" y="1.467">C</text>
      <text x="126.231" y="-13.518">U</text>
      <text x="129.284" y="-32.658">A</text>
    </g>
  </g>
</svg>
