<?xml version="1.0" encoding="UTF-8" standalone="yes"?>
<svg xmlns="http://www.w3.org/2000/svg" height="452" width="452">
<script type="text/ecmascript">
      <![CDATA[
        var shown = 1;
        function click() {
             var seq = document.getElementById("seq");
             if (shown==1) {
               seq.setAttribute("style", "visibility: hidden");
               shown = 0;
             } else {
               seq.setAttribute("style", "visibility: visible");
               shown = 1;
             }
         }
        ]]>
</script>
  <rect style="stroke: white; fill: white" height="452" x="0" y="0" width="452" onclick="click(evt)" />
  <g transform="scale(1.636901,1.636901) translate(17.512863,32.130898)">
    <polyline style="stroke: black; fill: none; stroke-width: 1.5" id="outline" points="
      112.149,-8.631
      111.503,6.355
      110.858,21.341
      110.213,36.327
      109.567,51.314
      101.290,63.696
      108.426,77.816
      92.498,79.391
      79.734,87.641
      72.570,100.121
      57.739,97.870
      42.909,95.619
      35.895,81.778
      22.070,74.732
      6.749,77.192
      -4.176,88.211
      -6.504,103.553
      0.659,117.317
      14.560,124.212
      29.854,121.586
      40.659,110.449
      55.489,112.700
      70.319,114.951
      74.709,127.707
      84.268,137.227
      79.817,151.551
      75.366,165.876
      70.916,180.200
      66.465,194.525
      51.974,200.402
      44.697,214.243
      48.070,229.513
      60.500,239.001
      76.118,238.227
      87.550,227.558
      89.398,212.030
      80.790,198.975
      85.240,184.651
      89.691,170.326
      94.142,156.002
      98.592,141.677
      109.735,141.184
      120.290,136.533
      128.713,128.103
      133.666,116.846
      134.227,104.178
      149.223,103.856
      164.220,103.533
      179.216,103.210
      194.213,102.887
      202.745,115.740
      216.881,121.919
      232.110,119.452
      243.572,109.126
      247.610,94.237
      242.935,79.535
      231.040,69.711
      215.719,67.902
      201.862,74.683
      193.890,87.891
      178.894,88.214
      163.897,88.536
      148.900,88.859
      133.904,89.182
      123.412,78.462
      131.736,65.007
      124.553,51.959
      125.199,36.973
      125.844,21.987
      126.489,7.001
      127.135,-7.986
      130.152,-27.131
    " />
    <g style="stroke: black; stroke-width: 1" id="pairs">
      <line id="1,71" x1="112.149" y1="-8.631" x2="127.135" y2="-7.986" />
      <line id="2,70" x1="111.503" y1=" 6.355" x2="126.489" y2=" 7.001" />
      <line id="3,69" x1="110.858" y1="21.341" x2="125.844" y2="21.987" />
      <line id="4,68" x1="110.213" y1="36.327" x2="125.199" y2="36.973" />
      <line id="5,67" x1="109.567" y1="51.314" x2="124.553" y2="51.959" />
      <line id="7,65" x1="108.426" y1="77.816" x2="123.412" y2="78.462" />
      <line id="10,23" x1="72.570" y1="100.121" x2="70.319" y2="114.951" />
      <line id="11,22" x1="57.739" y1="97.870" x2="55.489" y2="112.700" />
      <line id="12,21" x1="42.909" y1="95.619" x2="40.659" y2="110.449" />
      <line id="25,41" x1="84.268" y1="137.227" x2="98.592" y2="141.677" />
      <line id="26,40" x1="79.817" y1="151.551" x2="94.142" y2="156.002" />
      <line id="27,39" x1="75.366" y1="165.876" x2="89.691" y2="170.326" />
      <line id="28,38" x1="70.916" y1="180.200" x2="85.240" y2="184.651" />
      <line id="29,37" x1="66.465" y1="194.525" x2="80.790" y2="198.975" />
      <line id="46,64" x1="134.227" y1="104.178" x2="133.904" y2="89.182" />
      <line id="47,63" x1="149.223" y1="103.856" x2="148.900" y2="88.859" />
      <line id="48,62" x1="164.220" y1="103.533" x2="163.897" y2="88.536" />
      <line id="49,61" x1="179.216" y1="103.210" x2="178.894" y2="88.214" />
      <line id="50,60" x1="194.213" y1="102.887" x2="193.890" y2="87.891" />
    </g>
    <g style="font-family: SansSerif" transform="translate(-4.6, 4)" id="seq">
      <text x="112.149" y="-8.631">G</text>
      <text x="111.503" y="6.355">C</text>
      <text x="110.858" y="21.341">U</text>
      <text x="110.213" y="36.327">G</text>
      <text x="109.567" y="51.314">A</text>
      <text x="101.290" y="63.696">U</text>
      <text x="108.426" y="77.816">A</text>
      <text x="92.498" y="79.391">U</text>
      <text x="79.734" y="87.641">G</text>
      <text x="72.570" y="100.121">G</text>
      <text x="57.739" y="97.870">C</text>
      <text x="42.909" y="95.619">A</text>
      <text x="35.895" y="81.778">G</text>
      <text x="22.070" y="74.732">A</text>
      <text x="6.749" y="77.192">A</text>
      <text x="-4.176" y="88.211">A</text>
      <text x="-6.504" y="103.553">U</text>
      <text x="0.659" y="117.317">U</text>
      <text x="14.560" y="124.212">U</text>
      <text x="29.854" y="121.586">A</text>
      <text x="40.659" y="110.449">U</text>
      <text x="55.489" y="112.700">G</text>
      <text x="70.319" y="114.951">C</text>
      <text x="74.709" y="127.707">G</text>
      <text x="84.268" y="137.227">U</text>
      <text x="79.817" y="151.551">U</text>
      <text x="75.366" y="165.876">G</text>
      <text x="70.916" y="180.200">A</text>
      <text x="66.465" y="194.525">A</text>
      <text x="51.974" y="200.402">U</text>
      <text x="44.697" y="214.243">U</text>
      <text x="48.070" y="229.513">U</text>
      <text x="60.500" y="239.001">A</text>
      <text x="76.118" y="238.227">A</text>
      <text x="87.550" y="227.558">G</text>
      <text x="89.398" y="212.030">C</text>
      <text x="80.790" y="198.975">U</text>
      <text x="85.240" y="184.651">U</text>
      <text x="89.691" y="170.326">C</text>
      <text x="94.142" y="156.002">A</text>
      <text x="98.592" y="141.677">G</text>
      <text x="109.735" y="141.184">A</text>
      <text x="120.290" y="136.533">G</text>
      <text x="128.713" y="128.103">A</text>
      <text x="133.666" y="116.846">U</text>
      <text x="134.227" y="104.178">A</text>
      <text x="149.223" y="103.856">A</text>
      <text x="164.220" y="103.533">A</text>
      <text x="179.216" y="103.210">A</text>
      <text x="194.213" y="102.887">A</text>
      <text x="202.745" y="115.740">G</text>
      <text x="216.881" y="121.919">A</text>
      <text x="232.110" y="119.452">U</text>
      <text x="243.572" y="109.126">A</text>
      <text x="247.610" y="94.237">G</text>
      <text x="242.935" y="79.535">U</text>
      <text x="231.040" y="69.711">U</text>
      <text x="215.719" y="67.902">U</text>
      <text x="201.862" y="74.683">C</text>
      <text x="193.890" y="87.891">U</text>
      <text x="178.894" y="88.214">U</text>
      <text x="163.897" y="88.536">U</text>
      <text x="148.900" y="88.859">U</text>
      <text x="133.904" y="89.182">U</text>
      <text x="123.412" y="78.462">U</text>
      <text x="131.736" y="65.007">U</text>
      <text x="124.553" y="51.959">U</text>
      <text x="125.199" y="36.973">C</text>
      <text x="125.844" y="21.987">A</text>
      <text x="126.489" y="7.001">G</text>
      <text x="127.135" y="-7.986">C</text>
      <text x="130.152" y="-27.131">A</text>
    </g>
  </g>
</svg>
