<?xml version="1.0" encoding="UTF-8" standalone="yes"?>
<svg xmlns="http://www.w3.org/2000/svg" height="452" width="452">
<script type="text/ecmascript">
      <![CDATA[
        var shown = 1;
        function click() {
             var seq = document.getElementById("seq");
             if (shown==1) {
               seq.setAttribute("style", "visibility: hidden");
               shown = 0;
             } else {
               seq.setAttribute("style", "visibility: visible");
               shown = 1;
             }
         }
        ]]>
</script>
  <rect style="stroke: white; fill: white" height="452" x="0" y="0" width="452" onclick="click(evt)" />
  <g transform="scale(1.519859,1.519859) translate(12.415741,36.230850)">
    <polyline style="stroke: black; fill: none; stroke-width: 1.5" id="outline" points="
      113.909,7.075
      113.335,22.064
      105.116,34.486
      112.319,48.572
      111.744,63.561
      111.170,78.550
      110.595,93.539
      96.403,93.668
      84.302,99.591
      76.396,109.598
      62.095,105.072
      47.794,100.546
      33.493,96.020
      26.434,81.880
      11.417,76.953
      -2.647,84.161
      -7.416,99.229
      -0.059,113.217
      15.058,117.825
      28.967,110.321
      43.268,114.847
      57.569,119.373
      71.870,123.899
      73.331,133.940
      78.256,142.811
      69.627,155.080
      60.997,167.349
      52.367,179.618
      43.737,191.887
      28.142,193.036
      16.970,203.978
      15.497,219.546
      24.418,232.389
      39.521,236.444
      53.674,229.795
      60.196,215.582
      56.006,200.516
      64.636,188.247
      73.266,175.979
      81.896,163.710
      90.525,151.441
      101.931,154.016
      113.810,151.728
      124.110,144.643
      130.924,133.682
      132.838,120.510
      147.662,122.800
      160.120,132.553
      173.879,126.849
      175.858,141.825
      181.978,155.635
      191.742,167.161
      204.358,175.468
      218.804,179.883
      233.909,180.048
      248.448,175.949
      261.242,167.919
      271.255,156.609
      277.674,142.935
      279.980,128.007
      277.986,113.033
      271.852,99.229
      262.076,87.713
      249.452,79.419
      235.002,75.018
      219.897,74.869
      205.362,78.982
      192.576,87.025
      182.574,98.345
      176.168,112.025
      164.771,102.436
      149.952,107.976
      135.128,105.686
      125.584,94.114
      126.159,79.125
      126.733,64.136
      127.308,49.147
      135.568,35.653
      128.324,22.639
      128.898,7.650
      131.825,-11.510
    " />
    <g style="stroke: black; stroke-width: 1" id="pairs">
      <line id="1,80" x1="113.909" y1=" 7.075" x2="128.898" y2=" 7.650" />
      <line id="2,79" x1="113.335" y1="22.064" x2="128.324" y2="22.639" />
      <line id="4,77" x1="112.319" y1="48.572" x2="127.308" y2="49.147" />
      <line id="5,76" x1="111.744" y1="63.561" x2="126.733" y2="64.136" />
      <line id="6,75" x1="111.170" y1="78.550" x2="126.159" y2="79.125" />
      <line id="7,74" x1="110.595" y1="93.539" x2="125.584" y2="94.114" />
      <line id="10,23" x1="76.396" y1="109.598" x2="71.870" y2="123.899" />
      <line id="11,22" x1="62.095" y1="105.072" x2="57.569" y2="119.373" />
      <line id="12,21" x1="47.794" y1="100.546" x2="43.268" y2="114.847" />
      <line id="13,20" x1="33.493" y1="96.020" x2="28.967" y2="110.321" />
      <line id="25,41" x1="78.256" y1="142.811" x2="90.525" y2="151.441" />
      <line id="26,40" x1="69.627" y1="155.080" x2="81.896" y2="163.710" />
      <line id="27,39" x1="60.997" y1="167.349" x2="73.266" y2="175.979" />
      <line id="28,38" x1="52.367" y1="179.618" x2="64.636" y2="188.247" />
      <line id="29,37" x1="43.737" y1="191.887" x2="56.006" y2="200.516" />
      <line id="46,73" x1="132.838" y1="120.510" x2="135.128" y2="105.686" />
      <line id="47,72" x1="147.662" y1="122.800" x2="149.952" y2="107.976" />
      <line id="49,70" x1="173.879" y1="126.849" x2="176.168" y2="112.025" />
    </g>
    <g style="font-family: SansSerif" transform="translate(-4.6, 4)" id="seq">
      <text x="113.909" y="7.075">U</text>
      <text x="113.335" y="22.064">A</text>
      <text x="105.116" y="34.486">U</text>
      <text x="112.319" y="48.572">A</text>
      <text x="111.744" y="63.561">G</text>
      <text x="111.170" y="78.550">A</text>
      <text x="110.595" y="93.539">G</text>
      <text x="96.403" y="93.668">U</text>
      <text x="84.302" y="99.591">A</text>
      <text x="76.396" y="109.598">G</text>
      <text x="62.095" y="105.072">G</text>
      <text x="47.794" y="100.546">U</text>
      <text x="33.493" y="96.020">U</text>
      <text x="26.434" y="81.880">A</text>
      <text x="11.417" y="76.953">A</text>
      <text x="-2.647" y="84.161">G</text>
      <text x="-7.416" y="99.229">U</text>
      <text x="-0.059" y="113.217">U</text>
      <text x="15.058" y="117.825">A</text>
      <text x="28.967" y="110.321">A</text>
      <text x="43.268" y="114.847">A</text>
      <text x="57.569" y="119.373">C</text>
      <text x="71.870" y="123.899">C</text>
      <text x="73.331" y="133.940">A</text>
      <text x="78.256" y="142.811">A</text>
      <text x="69.627" y="155.080">C</text>
      <text x="60.997" y="167.349">G</text>
      <text x="52.367" y="179.618">G</text>
      <text x="43.737" y="191.887">G</text>
      <text x="28.142" y="193.036">C</text>
      <text x="16.970" y="203.978">U</text>
      <text x="15.497" y="219.546">C</text>
      <text x="24.418" y="232.389">A</text>
      <text x="39.521" y="236.444">U</text>
      <text x="53.674" y="229.795">G</text>
      <text x="60.196" y="215.582">C</text>
      <text x="56.006" y="200.516">C</text>
      <text x="64.636" y="188.247">C</text>
      <text x="73.266" y="175.979">C</text>
      <text x="81.896" y="163.710">G</text>
      <text x="90.525" y="151.441">U</text>
      <text x="101.931" y="154.016">G</text>
      <text x="113.810" y="151.728">C</text>
      <text x="124.110" y="144.643">A</text>
      <text x="130.924" y="133.682">U</text>
      <text x="132.838" y="120.510">G</text>
      <text x="147.662" y="122.800">C</text>
      <text x="160.120" y="132.553">U</text>
      <text x="173.879" y="126.849">U</text>
      <text x="175.858" y="141.825">G</text>
      <text x="181.978" y="155.635">U</text>
      <text x="191.742" y="167.161">A</text>
      <text x="204.358" y="175.468">A</text>
      <text x="218.804" y="179.883">U</text>
      <text x="233.909" y="180.048">A</text>
      <text x="248.448" y="175.949">A</text>
      <text x="261.242" y="167.919">U</text>
      <text x="271.255" y="156.609">C</text>
      <text x="277.674" y="142.935">G</text>
      <text x="279.980" y="128.007">A</text>
      <text x="277.986" y="113.033">C</text>
      <text x="271.852" y="99.229">C</text>
      <text x="262.076" y="87.713">A</text>
      <text x="249.452" y="79.419">A</text>
      <text x="235.002" y="75.018">G</text>
      <text x="219.897" y="74.869">U</text>
      <text x="205.362" y="78.982">U</text>
      <text x="192.576" y="87.025">U</text>
      <text x="182.574" y="98.345">A</text>
      <text x="176.168" y="112.025">G</text>
      <text x="164.771" y="102.436">U</text>
      <text x="149.952" y="107.976">G</text>
      <text x="135.128" y="105.686">C</text>
      <text x="125.584" y="94.114">U</text>
      <text x="126.159" y="79.125">U</text>
      <text x="126.733" y="64.136">U</text>
      <text x="127.308" y="49.147">U</text>
      <text x="135.568" y="35.653">U</text>
      <text x="128.324" y="22.639">U</text>
      <text x="128.898" y="7.650">A</text>
      <text x="131.825" y="-11.510">A</text>
    </g>
  </g>
</svg>
