<?xml version="1.0" encoding="UTF-8" standalone="yes"?>
<svg xmlns="http://www.w3.org/2000/svg" height="452" width="452">
<script type="text/ecmascript">
      <![CDATA[
        var shown = 1;
        function click() {
             var seq = document.getElementById("seq");
             if (shown==1) {
               seq.setAttribute("style", "visibility: hidden");
               shown = 0;
             } else {
               seq.setAttribute("style", "visibility: visible");
               shown = 1;
             }
         }
        ]]>
</script>
  <rect style="stroke: white; fill: white" height="452" x="0" y="0" width="452" onclick="click(evt)" />
  <g transform="scale(1.587143,1.587143) translate(35.522011,36.446808)">
    <polyline style="stroke: black; fill: none; stroke-width: 1.5" id="outline" points="
      111.555,-13.004
      110.863,1.980
      110.170,16.964
      109.477,31.948
      108.784,46.932
      108.092,61.916
      107.399,76.900
      90.907,79.148
      78.048,88.334
      71.337,101.707
      56.401,100.323
      41.465,98.939
      26.529,97.555
      15.215,86.180
      -0.715,88.078
      -9.042,101.791
      -3.377,116.800
      11.934,121.592
      25.145,112.491
      40.081,113.875
      55.017,115.259
      69.953,116.643
      75.725,130.227
      87.211,139.495
      84.454,154.240
      81.698,168.984
      78.942,183.729
      76.186,198.474
      62.476,205.995
      56.856,220.588
      61.980,235.362
      75.428,243.342
      90.851,240.759
      100.966,228.833
      100.998,213.196
      90.930,201.230
      93.687,186.485
      96.443,171.741
      99.199,156.996
      101.955,142.252
      112.740,140.692
      122.636,135.298
      130.283,126.518
      134.533,115.278
      134.616,102.888
      149.552,101.504
      164.488,100.120
      179.424,98.736
      190.410,109.864
      205.984,111.276
      218.791,102.304
      222.786,87.185
      216.081,73.058
      201.843,66.593
      186.794,70.842
      178.040,83.800
      163.104,85.184
      148.168,86.568
      133.232,87.952
      122.383,77.593
      123.076,62.609
      123.768,47.625
      124.461,32.641
      125.154,17.657
      125.847,2.673
      126.539,-12.311
      129.617,-31.447
    " />
    <g style="stroke: black; stroke-width: 1" id="pairs">
      <line id="1,66" x1="111.555" y1="-13.004" x2="126.539" y2="-12.311" />
      <line id="2,65" x1="110.863" y1=" 1.980" x2="125.847" y2=" 2.673" />
      <line id="3,64" x1="110.170" y1="16.964" x2="125.154" y2="17.657" />
      <line id="4,63" x1="109.477" y1="31.948" x2="124.461" y2="32.641" />
      <line id="5,62" x1="108.784" y1="46.932" x2="123.768" y2="47.625" />
      <line id="6,61" x1="108.092" y1="61.916" x2="123.076" y2="62.609" />
      <line id="7,60" x1="107.399" y1="76.900" x2="122.383" y2="77.593" />
      <line id="10,22" x1="71.337" y1="101.707" x2="69.953" y2="116.643" />
      <line id="11,21" x1="56.401" y1="100.323" x2="55.017" y2="115.259" />
      <line id="12,20" x1="41.465" y1="98.939" x2="40.081" y2="113.875" />
      <line id="13,19" x1="26.529" y1="97.555" x2="25.145" y2="112.491" />
      <line id="24,40" x1="87.211" y1="139.495" x2="101.955" y2="142.252" />
      <line id="25,39" x1="84.454" y1="154.240" x2="99.199" y2="156.996" />
      <line id="26,38" x1="81.698" y1="168.984" x2="96.443" y2="171.741" />
      <line id="27,37" x1="78.942" y1="183.729" x2="93.687" y2="186.485" />
      <line id="28,36" x1="76.186" y1="198.474" x2="90.930" y2="201.230" />
      <line id="45,59" x1="134.616" y1="102.888" x2="133.232" y2="87.952" />
      <line id="46,58" x1="149.552" y1="101.504" x2="148.168" y2="86.568" />
      <line id="47,57" x1="164.488" y1="100.120" x2="163.104" y2="85.184" />
      <line id="48,56" x1="179.424" y1="98.736" x2="178.040" y2="83.800" />
    </g>
    <g style="font-family: SansSerif" transform="translate(-4.6, 4)" id="seq">
      <text x="111.555" y="-13.004">G</text>
      <text x="110.863" y="1.980">C</text>
      <text x="110.170" y="16.964">U</text>
      <text x="109.477" y="31.948">U</text>
      <text x="108.784" y="46.932">U</text>
      <text x="108.092" y="61.916">U</text>
      <text x="107.399" y="76.900">U</text>
      <text x="90.907" y="79.148">U</text>
      <text x="78.048" y="88.334">A</text>
      <text x="71.337" y="101.707">G</text>
      <text x="56.401" y="100.323">U</text>
      <text x="41.465" y="98.939">U</text>
      <text x="26.529" y="97.555">U</text>
      <text x="15.215" y="86.180">A</text>
      <text x="-0.715" y="88.078">A</text>
      <text x="-9.042" y="101.791">G</text>
      <text x="-3.377" y="116.800">A</text>
      <text x="11.934" y="121.592">A</text>
      <text x="25.145" y="112.491">A</text>
      <text x="40.081" y="113.875">A</text>
      <text x="55.017" y="115.259">A</text>
      <text x="69.953" y="116.643">U</text>
      <text x="75.725" y="130.227">U</text>
      <text x="87.211" y="139.495">U</text>
      <text x="84.454" y="154.240">U</text>
      <text x="81.698" y="168.984">U</text>
      <text x="78.942" y="183.729">G</text>
      <text x="76.186" y="198.474">U</text>
      <text x="62.476" y="205.995">U</text>
      <text x="56.856" y="220.588">U</text>
      <text x="61.980" y="235.362">U</text>
      <text x="75.428" y="243.342">G</text>
      <text x="90.851" y="240.759">U</text>
      <text x="100.966" y="228.833">A</text>
      <text x="100.998" y="213.196">A</text>
      <text x="90.930" y="201.230">A</text>
      <text x="93.687" y="186.485">C</text>
      <text x="96.443" y="171.741">A</text>
      <text x="99.199" y="156.996">A</text>
      <text x="101.955" y="142.252">G</text>
      <text x="112.740" y="140.692">A</text>
      <text x="122.636" y="135.298">G</text>
      <text x="130.283" y="126.518">A</text>
      <text x="134.533" y="115.278">U</text>
      <text x="134.616" y="102.888">A</text>
      <text x="149.552" y="101.504">G</text>
      <text x="164.488" y="100.120">C</text>
      <text x="179.424" y="98.736">A</text>
      <text x="190.410" y="109.864">U</text>
      <text x="205.984" y="111.276">U</text>
      <text x="218.791" y="102.304">U</text>
      <text x="222.786" y="87.185">A</text>
      <text x="216.081" y="73.058">A</text>
      <text x="201.843" y="66.593">G</text>
      <text x="186.794" y="70.842">U</text>
      <text x="178.040" y="83.800">U</text>
      <text x="163.104" y="85.184">G</text>
      <text x="148.168" y="86.568">U</text>
      <text x="133.232" y="87.952">U</text>
      <text x="122.383" y="77.593">A</text>
      <text x="123.076" y="62.609">A</text>
      <text x="123.768" y="47.625">A</text>
      <text x="124.461" y="32.641">A</text>
      <text x="125.154" y="17.657">A</text>
      <text x="125.847" y="2.673">G</text>
      <text x="126.539" y="-12.311">C</text>
      <text x="129.617" y="-31.447">G</text>
    </g>
  </g>
</svg>
