<?xml version="1.0" encoding="UTF-8" standalone="yes"?>
<svg xmlns="http://www.w3.org/2000/svg" height="452" width="452">
<script type="text/ecmascript">
      <![CDATA[
        var shown = 1;
        function click() {
             var seq = document.getElementById("seq");
             if (shown==1) {
               seq.setAttribute("style", "visibility: hidden");
               shown = 0;
             } else {
               seq.setAttribute("style", "visibility: visible");
               shown = 1;
             }
         }
        ]]>
</script>
  <rect style="stroke: white; fill: white" height="452" x="0" y="0" width="452" onclick="click(evt)" />
  <g transform="scale(1.569997,1.569997) translate(49.305679,38.115562)">
    <polyline style="stroke: black; fill: none; stroke-width: 1.5" id="outline" points="
      108.519,-14.660
      107.836,0.324
      107.153,15.308
      106.471,30.293
      105.788,45.277
      105.105,60.262
      104.423,75.246
      86.945,79.402
      74.419,90.938
      69.435,106.241
      54.470,107.264
      39.504,108.288
      31.538,95.219
      18.404,87.360
      3.122,86.516
      -10.797,92.881
      -20.155,104.992
      -22.801,120.067
      -18.127,134.642
      -7.207,145.366
      7.449,149.777
      22.474,146.859
      34.415,137.285
      40.528,123.253
      55.493,122.229
      70.458,121.206
      80.409,135.748
      96.672,142.532
      98.714,157.392
      100.757,172.253
      102.799,187.113
      104.842,201.973
      94.210,213.440
      93.487,229.061
      103.016,241.460
      118.296,244.783
      132.114,237.461
      137.944,222.951
      133.034,208.104
      119.702,199.931
      117.660,185.070
      115.617,170.210
      113.575,155.350
      111.532,140.490
      120.324,136.607
      127.785,130.024
      133.084,121.204
      135.551,110.866
      134.760,99.927
      149.292,96.210
      163.824,92.493
      178.356,88.776
      192.888,85.059
      212.088,82.409
      207.285,63.632
      189.171,70.527
      174.639,74.244
      160.107,77.961
      145.575,81.678
      131.043,85.395
      119.407,75.929
      120.090,60.945
      120.772,45.960
      121.455,30.976
      122.138,15.991
      122.821,1.007
      123.503,-13.978
      126.568,-33.116
    " />
    <g style="stroke: black; stroke-width: 1" id="pairs">
      <line id="1,67" x1="108.519" y1="-14.660" x2="123.503" y2="-13.978" />
      <line id="2,66" x1="107.836" y1=" 0.324" x2="122.821" y2=" 1.007" />
      <line id="3,65" x1="107.153" y1="15.308" x2="122.138" y2="15.991" />
      <line id="4,64" x1="106.471" y1="30.293" x2="121.455" y2="30.976" />
      <line id="5,63" x1="105.788" y1="45.277" x2="120.772" y2="45.960" />
      <line id="6,62" x1="105.105" y1="60.262" x2="120.090" y2="60.945" />
      <line id="7,61" x1="104.423" y1="75.246" x2="119.407" y2="75.929" />
      <line id="10,26" x1="69.435" y1="106.241" x2="70.458" y2="121.206" />
      <line id="11,25" x1="54.470" y1="107.264" x2="55.493" y2="122.229" />
      <line id="12,24" x1="39.504" y1="108.288" x2="40.528" y2="123.253" />
      <line id="28,44" x1="96.672" y1="142.532" x2="111.532" y2="140.490" />
      <line id="29,43" x1="98.714" y1="157.392" x2="113.575" y2="155.350" />
      <line id="30,42" x1="100.757" y1="172.253" x2="115.617" y2="170.210" />
      <line id="31,41" x1="102.799" y1="187.113" x2="117.660" y2="185.070" />
      <line id="32,40" x1="104.842" y1="201.973" x2="119.702" y2="199.931" />
      <line id="49,60" x1="134.760" y1="99.927" x2="131.043" y2="85.395" />
      <line id="50,59" x1="149.292" y1="96.210" x2="145.575" y2="81.678" />
      <line id="51,58" x1="163.824" y1="92.493" x2="160.107" y2="77.961" />
      <line id="52,57" x1="178.356" y1="88.776" x2="174.639" y2="74.244" />
      <line id="53,56" x1="192.888" y1="85.059" x2="189.171" y2="70.527" />
    </g>
    <g style="font-family: SansSerif" transform="translate(-4.6, 4)" id="seq">
      <text x="108.519" y="-14.660">G</text>
      <text x="107.836" y="0.324">A</text>
      <text x="107.153" y="15.308">C</text>
      <text x="106.471" y="30.293">G</text>
      <text x="105.788" y="45.277">A</text>
      <text x="105.105" y="60.262">G</text>
      <text x="104.423" y="75.246">G</text>
      <text x="86.945" y="79.402">U</text>
      <text x="74.419" y="90.938">G</text>
      <text x="69.435" y="106.241">G</text>
      <text x="54.470" y="107.264">C</text>
      <text x="39.504" y="108.288">U</text>
      <text x="31.538" y="95.219">G</text>
      <text x="18.404" y="87.360">A</text>
      <text x="3.122" y="86.516">G</text>
      <text x="-10.797" y="92.881">A</text>
      <text x="-20.155" y="104.992">G</text>
      <text x="-22.801" y="120.067">A</text>
      <text x="-18.127" y="134.642">A</text>
      <text x="-7.207" y="145.366">A</text>
      <text x="7.449" y="149.777">A</text>
      <text x="22.474" y="146.859">U</text>
      <text x="34.415" y="137.285">A</text>
      <text x="40.528" y="123.253">A</text>
      <text x="55.493" y="122.229">G</text>
      <text x="70.458" y="121.206">C</text>
      <text x="80.409" y="135.748">G</text>
      <text x="96.672" y="142.532">G</text>
      <text x="98.714" y="157.392">U</text>
      <text x="100.757" y="172.253">A</text>
      <text x="102.799" y="187.113">G</text>
      <text x="104.842" y="201.973">A</text>
      <text x="94.210" y="213.440">U</text>
      <text x="93.487" y="229.061">U</text>
      <text x="103.016" y="241.460">G</text>
      <text x="118.296" y="244.783">U</text>
      <text x="132.114" y="237.461">A</text>
      <text x="137.944" y="222.951">A</text>
      <text x="133.034" y="208.104">A</text>
      <text x="119.702" y="199.931">U</text>
      <text x="117.660" y="185.070">C</text>
      <text x="115.617" y="170.210">U</text>
      <text x="113.575" y="155.350">A</text>
      <text x="111.532" y="140.490">U</text>
      <text x="120.324" y="136.607">U</text>
      <text x="127.785" y="130.024">U</text>
      <text x="133.084" y="121.204">A</text>
      <text x="135.551" y="110.866">G</text>
      <text x="134.760" y="99.927">A</text>
      <text x="149.292" y="96.210">U</text>
      <text x="163.824" y="92.493">C</text>
      <text x="178.356" y="88.776">C</text>
      <text x="192.888" y="85.059">U</text>
      <text x="212.088" y="82.409">G</text>
      <text x="207.285" y="63.632">U</text>
      <text x="189.171" y="70.527">A</text>
      <text x="174.639" y="74.244">G</text>
      <text x="160.107" y="77.961">G</text>
      <text x="145.575" y="81.678">A</text>
      <text x="131.043" y="85.395">U</text>
      <text x="119.407" y="75.929">U</text>
      <text x="120.090" y="60.945">C</text>
      <text x="120.772" y="45.960">U</text>
      <text x="121.455" y="30.976">U</text>
      <text x="122.138" y="15.991">G</text>
      <text x="122.821" y="1.007">U</text>
      <text x="123.503" y="-13.978">U</text>
      <text x="126.568" y="-33.116">A</text>
    </g>
  </g>
</svg>
