<?xml version="1.0" encoding="UTF-8" standalone="yes"?>
<svg xmlns="http://www.w3.org/2000/svg" height="452" width="452">
<script type="text/ecmascript">
      <![CDATA[
        var shown = 1;
        function click() {
             var seq = document.getElementById("seq");
             if (shown==1) {
               seq.setAttribute("style", "visibility: hidden");
               shown = 0;
             } else {
               seq.setAttribute("style", "visibility: visible");
               shown = 1;
             }
         }
        ]]>
</script>
  <rect style="stroke: white; fill: white" height="452" x="0" y="0" width="452" onclick="click(evt)" />
  <g transform="scale(1.781713,1.781713) translate(4.685921,8.047394)">
    <polyline style="stroke: black; fill: none; stroke-width: 1.5" id="outline" points="
      116.144,15.343
      115.408,30.325
      114.672,45.307
      113.936,60.289
      113.200,75.271
      112.464,90.253
      111.728,105.235
      102.380,103.795
      93.142,104.960
      84.717,108.560
      77.720,114.244
      72.639,121.510
      69.799,129.753
      69.342,138.312
      71.223,146.522
      75.217,153.769
      65.144,164.883
      55.071,175.997
      44.728,186.861
      34.121,197.468
      18.560,195.925
      5.676,204.788
      1.554,219.872
      8.140,234.056
      22.323,240.641
      37.407,236.519
      46.271,223.636
      44.728,208.074
      55.334,197.468
      62.558,194.872
      66.185,186.071
      76.258,174.957
      86.332,163.842
      98.789,168.129
      112.300,166.619
      124.220,159.248
      132.066,147.130
      134.025,132.404
      148.863,134.605
      163.700,136.806
      178.538,139.007
      193.376,141.208
      200.436,155.025
      214.285,162.024
      229.598,159.513
      240.486,148.457
      242.762,133.108
      235.553,119.368
      221.628,112.519
      206.344,115.197
      195.577,126.370
      180.739,124.169
      165.901,121.968
      151.064,119.767
      136.226,117.566
      126.710,105.971
      127.446,90.989
      128.182,76.007
      128.918,61.025
      129.654,46.043
      130.390,31.061
      131.126,16.079
      134.259,-3.047
    " />
    <g style="stroke: black; stroke-width: 1" id="pairs">
      <line id="1,62" x1="116.144" y1="15.343" x2="131.126" y2="16.079" />
      <line id="2,61" x1="115.408" y1="30.325" x2="130.390" y2="31.061" />
      <line id="3,60" x1="114.672" y1="45.307" x2="129.654" y2="46.043" />
      <line id="4,59" x1="113.936" y1="60.289" x2="128.918" y2="61.025" />
      <line id="5,58" x1="113.200" y1="75.271" x2="128.182" y2="76.007" />
      <line id="6,57" x1="112.464" y1="90.253" x2="127.446" y2="90.989" />
      <line id="7,56" x1="111.728" y1="105.235" x2="126.710" y2="105.971" />
      <line id="16,33" x1="75.217" y1="153.769" x2="86.332" y2="163.842" />
      <line id="17,32" x1="65.144" y1="164.883" x2="76.258" y2="174.957" />
      <line id="18,31" x1="55.071" y1="175.997" x2="66.185" y2="186.071" />
      <line id="19,29" x1="44.728" y1="186.861" x2="55.334" y2="197.468" />
      <line id="20,28" x1="34.121" y1="197.468" x2="44.728" y2="208.074" />
      <line id="38,55" x1="134.025" y1="132.404" x2="136.226" y2="117.566" />
      <line id="39,54" x1="148.863" y1="134.605" x2="151.064" y2="119.767" />
      <line id="40,53" x1="163.700" y1="136.806" x2="165.901" y2="121.968" />
      <line id="41,52" x1="178.538" y1="139.007" x2="180.739" y2="124.169" />
      <line id="42,51" x1="193.376" y1="141.208" x2="195.577" y2="126.370" />
    </g>
    <g style="font-family: SansSerif" transform="translate(-4.6, 4)" id="seq">
      <text x="116.144" y="15.343">G</text>
      <text x="115.408" y="30.325">G</text>
      <text x="114.672" y="45.307">U</text>
      <text x="113.936" y="60.289">U</text>
      <text x="113.200" y="75.271">A</text>
      <text x="112.464" y="90.253">A</text>
      <text x="111.728" y="105.235">A</text>
      <text x="102.380" y="103.795">A</text>
      <text x="93.142" y="104.960">A</text>
      <text x="84.717" y="108.560">A</text>
      <text x="77.720" y="114.244">A</text>
      <text x="72.639" y="121.510">U</text>
      <text x="69.799" y="129.753">U</text>
      <text x="69.342" y="138.312">U</text>
      <text x="71.223" y="146.522">G</text>
      <text x="75.217" y="153.769">G</text>
      <text x="65.144" y="164.883">G</text>
      <text x="55.071" y="175.997">A</text>
      <text x="44.728" y="186.861">U</text>
      <text x="34.121" y="197.468">G</text>
      <text x="18.560" y="195.925">U</text>
      <text x="5.676" y="204.788">U</text>
      <text x="1.554" y="219.872">G</text>
      <text x="8.140" y="234.056">C</text>
      <text x="22.323" y="240.641">A</text>
      <text x="37.407" y="236.519">A</text>
      <text x="46.271" y="223.636">G</text>
      <text x="44.728" y="208.074">C</text>
      <text x="55.334" y="197.468">A</text>
      <text x="62.558" y="194.872">U</text>
      <text x="66.185" y="186.071">U</text>
      <text x="76.258" y="174.957">U</text>
      <text x="86.332" y="163.842">C</text>
      <text x="98.789" y="168.129">U</text>
      <text x="112.300" y="166.619">G</text>
      <text x="124.220" y="159.248">U</text>
      <text x="132.066" y="147.130">U</text>
      <text x="134.025" y="132.404">G</text>
      <text x="148.863" y="134.605">G</text>
      <text x="163.700" y="136.806">U</text>
      <text x="178.538" y="139.007">A</text>
      <text x="193.376" y="141.208">A</text>
      <text x="200.436" y="155.025">C</text>
      <text x="214.285" y="162.024">U</text>
      <text x="229.598" y="159.513">U</text>
      <text x="240.486" y="148.457">U</text>
      <text x="242.762" y="133.108">A</text>
      <text x="235.553" y="119.368">U</text>
      <text x="221.628" y="112.519">A</text>
      <text x="206.344" y="115.197">G</text>
      <text x="195.577" y="126.370">U</text>
      <text x="180.739" y="124.169">U</text>
      <text x="165.901" y="121.968">G</text>
      <text x="151.064" y="119.767">U</text>
      <text x="136.226" y="117.566">C</text>
      <text x="126.710" y="105.971">U</text>
      <text x="127.446" y="90.989">U</text>
      <text x="128.182" y="76.007">U</text>
      <text x="128.918" y="61.025">A</text>
      <text x="129.654" y="46.043">A</text>
      <text x="130.390" y="31.061">C</text>
      <text x="131.126" y="16.079">C</text>
      <text x="134.259" y="-3.047">U</text>
    </g>
  </g>
</svg>
