<?xml version="1.0" encoding="UTF-8" standalone="yes"?>
<svg xmlns="http://www.w3.org/2000/svg" height="452" width="452">
<script type="text/ecmascript">
      <![CDATA[
        var shown = 1;
        function click() {
             var seq = document.getElementById("seq");
             if (shown==1) {
               seq.setAttribute("style", "visibility: hidden");
               shown = 0;
             } else {
               seq.setAttribute("style", "visibility: visible");
               shown = 1;
             }
         }
        ]]>
</script>
  <rect style="stroke: white; fill: white" height="452" x="0" y="0" width="452" onclick="click(evt)" />
  <g transform="scale(1.566100,1.566100) translate(44.295677,39.273857)">
    <polyline style="stroke: black; fill: none; stroke-width: 1.5" id="outline" points="
      109.973,-15.856
      109.260,-0.873
      108.546,14.110
      107.832,29.093
      107.118,44.076
      106.405,59.059
      105.691,74.042
      88.530,77.389
      75.761,87.980
      69.969,102.567
      54.969,102.567
      39.969,102.567
      24.969,102.567
      13.973,91.216
      -1.831,91.049
      -13.065,102.165
      -13.065,117.970
      -1.831,129.086
      13.973,128.919
      24.969,117.567
      39.969,117.567
      54.969,117.567
      69.969,117.567
      78.113,131.954
      92.500,140.098
      92.500,155.098
      92.500,170.098
      92.500,185.098
      92.500,200.098
      80.405,210.010
      77.563,225.387
      85.314,238.969
      100.000,244.341
      114.686,238.969
      122.437,225.387
      119.595,210.010
      107.500,200.098
      107.500,185.098
      107.500,170.098
      107.500,155.098
      107.500,140.098
      117.295,137.059
      125.871,130.811
      132.178,121.840
      135.357,110.974
      134.849,99.307
      149.578,96.469
      164.307,93.630
      179.036,90.791
      193.765,87.952
      213.089,86.459
      209.421,67.428
      190.926,73.223
      176.197,76.062
      161.468,78.901
      146.739,81.740
      132.010,84.579
      120.674,74.756
      121.388,59.773
      122.101,44.790
      122.815,29.807
      123.529,14.824
      124.243,-0.159
      124.956,-15.142
      128.061,-34.274
    " />
    <g style="stroke: black; stroke-width: 1" id="pairs">
      <line id="1,64" x1="109.973" y1="-15.856" x2="124.956" y2="-15.142" />
      <line id="2,63" x1="109.260" y1="-0.873" x2="124.243" y2="-0.159" />
      <line id="3,62" x1="108.546" y1="14.110" x2="123.529" y2="14.824" />
      <line id="4,61" x1="107.832" y1="29.093" x2="122.815" y2="29.807" />
      <line id="5,60" x1="107.118" y1="44.076" x2="122.101" y2="44.790" />
      <line id="6,59" x1="106.405" y1="59.059" x2="121.388" y2="59.773" />
      <line id="7,58" x1="105.691" y1="74.042" x2="120.674" y2="74.756" />
      <line id="10,23" x1="69.969" y1="102.567" x2="69.969" y2="117.567" />
      <line id="11,22" x1="54.969" y1="102.567" x2="54.969" y2="117.567" />
      <line id="12,21" x1="39.969" y1="102.567" x2="39.969" y2="117.567" />
      <line id="13,20" x1="24.969" y1="102.567" x2="24.969" y2="117.567" />
      <line id="25,41" x1="92.500" y1="140.098" x2="107.500" y2="140.098" />
      <line id="26,40" x1="92.500" y1="155.098" x2="107.500" y2="155.098" />
      <line id="27,39" x1="92.500" y1="170.098" x2="107.500" y2="170.098" />
      <line id="28,38" x1="92.500" y1="185.098" x2="107.500" y2="185.098" />
      <line id="29,37" x1="92.500" y1="200.098" x2="107.500" y2="200.098" />
      <line id="46,57" x1="134.849" y1="99.307" x2="132.010" y2="84.579" />
      <line id="47,56" x1="149.578" y1="96.469" x2="146.739" y2="81.740" />
      <line id="48,55" x1="164.307" y1="93.630" x2="161.468" y2="78.901" />
      <line id="49,54" x1="179.036" y1="90.791" x2="176.197" y2="76.062" />
      <line id="50,53" x1="193.765" y1="87.952" x2="190.926" y2="73.223" />
    </g>
    <g style="font-family: SansSerif" transform="translate(-4.6, 4)" id="seq">
      <text x="109.973" y="-15.856">G</text>
      <text x="109.260" y="-0.873">C</text>
      <text x="108.546" y="14.110">U</text>
      <text x="107.832" y="29.093">U</text>
      <text x="107.118" y="44.076">U</text>
      <text x="106.405" y="59.059">U</text>
      <text x="105.691" y="74.042">U</text>
      <text x="88.530" y="77.389">U</text>
      <text x="75.761" y="87.980">A</text>
      <text x="69.969" y="102.567">G</text>
      <text x="54.969" y="102.567">U</text>
      <text x="39.969" y="102.567">A</text>
      <text x="24.969" y="102.567">U</text>
      <text x="13.973" y="91.216">A</text>
      <text x="-1.831" y="91.049">A</text>
      <text x="-13.065" y="102.165">U</text>
      <text x="-13.065" y="117.970">G</text>
      <text x="-1.831" y="129.086">U</text>
      <text x="13.973" y="128.919">A</text>
      <text x="24.969" y="117.567">G</text>
      <text x="39.969" y="117.567">U</text>
      <text x="54.969" y="117.567">A</text>
      <text x="69.969" y="117.567">U</text>
      <text x="78.113" y="131.954">U</text>
      <text x="92.500" y="140.098">U</text>
      <text x="92.500" y="155.098">C</text>
      <text x="92.500" y="170.098">U</text>
      <text x="92.500" y="185.098">U</text>
      <text x="92.500" y="200.098">G</text>
      <text x="80.405" y="210.010">U</text>
      <text x="77.563" y="225.387">U</text>
      <text x="85.314" y="238.969">U</text>
      <text x="100.000" y="244.341">C</text>
      <text x="114.686" y="238.969">C</text>
      <text x="122.437" y="225.387">A</text>
      <text x="119.595" y="210.010">U</text>
      <text x="107.500" y="200.098">C</text>
      <text x="107.500" y="185.098">A</text>
      <text x="107.500" y="170.098">A</text>
      <text x="107.500" y="155.098">G</text>
      <text x="107.500" y="140.098">A</text>
      <text x="117.295" y="137.059">G</text>
      <text x="125.871" y="130.811">G</text>
      <text x="132.178" y="121.840">G</text>
      <text x="135.357" y="110.974">U</text>
      <text x="134.849" y="99.307">U</text>
      <text x="149.578" y="96.469">U</text>
      <text x="164.307" y="93.630">C</text>
      <text x="179.036" y="90.791">U</text>
      <text x="193.765" y="87.952">U</text>
      <text x="213.089" y="86.459">U</text>
      <text x="209.421" y="67.428">A</text>
      <text x="190.926" y="73.223">G</text>
      <text x="176.197" y="76.062">A</text>
      <text x="161.468" y="78.901">G</text>
      <text x="146.739" y="81.740">A</text>
      <text x="132.010" y="84.579">A</text>
      <text x="120.674" y="74.756">A</text>
      <text x="121.388" y="59.773">A</text>
      <text x="122.101" y="44.790">G</text>
      <text x="122.815" y="29.807">A</text>
      <text x="123.529" y="14.824">A</text>
      <text x="124.243" y="-0.159">G</text>
      <text x="124.956" y="-15.142">U</text>
      <text x="128.061" y="-34.274">A</text>
    </g>
  </g>
</svg>
