<?xml version="1.0" encoding="UTF-8" standalone="yes"?>
<svg xmlns="http://www.w3.org/2000/svg" height="452" width="452">
<script type="text/ecmascript">
      <![CDATA[
        var shown = 1;
        function click() {
             var seq = document.getElementById("seq");
             if (shown==1) {
               seq.setAttribute("style", "visibility: hidden");
               shown = 0;
             } else {
               seq.setAttribute("style", "visibility: visible");
               shown = 1;
             }
         }
        ]]>
</script>
  <rect style="stroke: white; fill: white" height="452" x="0" y="0" width="452" onclick="click(evt)" />
  <g transform="scale(1.606764,1.606764) translate(38.611687,32.631996)">
    <polyline style="stroke: black; fill: none; stroke-width: 1.5" id="outline" points="
      110.394,-9.101
      109.774,5.886
      109.155,20.873
      108.535,35.860
      107.915,50.847
      107.295,65.835
      106.675,80.822
      89.874,83.540
      77.069,93.382
      70.837,107.334
      55.850,106.714
      40.862,106.094
      25.875,105.475
      18.823,91.830
      5.885,83.554
      -9.458,82.871
      -23.080,89.966
      -31.317,102.929
      -31.951,118.275
      -24.814,131.875
      -11.824,140.070
      3.523,140.657
      17.101,133.477
      25.255,120.462
      40.243,121.082
      55.230,121.701
      70.217,122.321
      77.186,136.194
      90.090,144.825
      88.851,159.774
      87.612,174.722
      86.374,189.671
      72.703,196.821
      65.087,210.237
      65.957,225.640
      75.035,238.114
      89.424,243.679
      104.533,240.558
      115.540,229.749
      118.933,214.699
      113.630,200.212
      101.322,190.910
      102.561,175.961
      103.800,161.012
      105.038,146.064
      115.144,143.690
      124.192,137.903
      131.029,129.159
      134.696,118.303
      134.553,106.486
      149.438,104.630
      164.323,102.775
      179.208,100.919
      188.410,113.217
      202.533,119.251
      217.780,117.399
      230.049,108.159
      236.039,94.016
      234.139,78.775
      224.860,66.536
      210.699,60.590
      195.464,62.538
      183.254,71.855
      177.353,86.035
      162.468,87.890
      147.583,89.745
      132.698,91.601
      121.662,81.442
      122.282,66.454
      122.902,51.467
      123.522,36.480
      124.142,21.493
      124.762,6.506
      125.381,-8.482
      128.366,-27.632
    " />
    <g style="stroke: black; stroke-width: 1" id="pairs">
      <line id="1,74" x1="110.394" y1="-9.101" x2="125.381" y2="-8.482" />
      <line id="2,73" x1="109.774" y1=" 5.886" x2="124.762" y2=" 6.506" />
      <line id="3,72" x1="109.155" y1="20.873" x2="124.142" y2="21.493" />
      <line id="4,71" x1="108.535" y1="35.860" x2="123.522" y2="36.480" />
      <line id="5,70" x1="107.915" y1="50.847" x2="122.902" y2="51.467" />
      <line id="6,69" x1="107.295" y1="65.835" x2="122.282" y2="66.454" />
      <line id="7,68" x1="106.675" y1="80.822" x2="121.662" y2="81.442" />
      <line id="10,27" x1="70.837" y1="107.334" x2="70.217" y2="122.321" />
      <line id="11,26" x1="55.850" y1="106.714" x2="55.230" y2="121.701" />
      <line id="12,25" x1="40.862" y1="106.094" x2="40.243" y2="121.082" />
      <line id="13,24" x1="25.875" y1="105.475" x2="25.255" y2="120.462" />
      <line id="29,45" x1="90.090" y1="144.825" x2="105.038" y2="146.064" />
      <line id="30,44" x1="88.851" y1="159.774" x2="103.800" y2="161.012" />
      <line id="31,43" x1="87.612" y1="174.722" x2="102.561" y2="175.961" />
      <line id="32,42" x1="86.374" y1="189.671" x2="101.322" y2="190.910" />
      <line id="50,67" x1="134.553" y1="106.486" x2="132.698" y2="91.601" />
      <line id="51,66" x1="149.438" y1="104.630" x2="147.583" y2="89.745" />
      <line id="52,65" x1="164.323" y1="102.775" x2="162.468" y2="87.890" />
      <line id="53,64" x1="179.208" y1="100.919" x2="177.353" y2="86.035" />
    </g>
    <g style="font-family: SansSerif" transform="translate(-4.6, 4)" id="seq">
      <text x="110.394" y="-9.101">G</text>
      <text x="109.774" y="5.886">U</text>
      <text x="109.155" y="20.873">A</text>
      <text x="108.535" y="35.860">A</text>
      <text x="107.915" y="50.847">A</text>
      <text x="107.295" y="65.835">A</text>
      <text x="106.675" y="80.822">A</text>
      <text x="89.874" y="83.540">U</text>
      <text x="77.069" y="93.382">A</text>
      <text x="70.837" y="107.334">G</text>
      <text x="55.850" y="106.714">C</text>
      <text x="40.862" y="106.094">U</text>
      <text x="25.875" y="105.475">U</text>
      <text x="18.823" y="91.830">A</text>
      <text x="5.885" y="83.554">A</text>
      <text x="-9.458" y="82.871">U</text>
      <text x="-23.080" y="89.966">U</text>
      <text x="-31.317" y="102.929">U</text>
      <text x="-31.951" y="118.275">A</text>
      <text x="-24.814" y="131.875">A</text>
      <text x="-11.824" y="140.070">U</text>
      <text x="3.523" y="140.657">U</text>
      <text x="17.101" y="133.477">A</text>
      <text x="25.255" y="120.462">A</text>
      <text x="40.243" y="121.082">A</text>
      <text x="55.230" y="121.701">G</text>
      <text x="70.217" y="122.321">C</text>
      <text x="77.186" y="136.194">A</text>
      <text x="90.090" y="144.825">C</text>
      <text x="88.851" y="159.774">U</text>
      <text x="87.612" y="174.722">U</text>
      <text x="86.374" y="189.671">G</text>
      <text x="72.703" y="196.821">A</text>
      <text x="65.087" y="210.237">U</text>
      <text x="65.957" y="225.640">U</text>
      <text x="75.035" y="238.114">U</text>
      <text x="89.424" y="243.679">U</text>
      <text x="104.533" y="240.558">U</text>
      <text x="115.540" y="229.749">A</text>
      <text x="118.933" y="214.699">A</text>
      <text x="113.630" y="200.212">C</text>
      <text x="101.322" y="190.910">C</text>
      <text x="102.561" y="175.961">A</text>
      <text x="103.800" y="161.012">A</text>
      <text x="105.038" y="146.064">G</text>
      <text x="115.144" y="143.690">C</text>
      <text x="124.192" y="137.903">G</text>
      <text x="131.029" y="129.159">A</text>
      <text x="134.696" y="118.303">U</text>
      <text x="134.553" y="106.486">G</text>
      <text x="149.438" y="104.630">A</text>
      <text x="164.323" y="102.775">A</text>
      <text x="179.208" y="100.919">G</text>
      <text x="188.410" y="113.217">G</text>
      <text x="202.533" y="119.251">A</text>
      <text x="217.780" y="117.399">G</text>
      <text x="230.049" y="108.159">G</text>
      <text x="236.039" y="94.016">A</text>
      <text x="234.139" y="78.775">G</text>
      <text x="224.860" y="66.536">A</text>
      <text x="210.699" y="60.590">C</text>
      <text x="195.464" y="62.538">G</text>
      <text x="183.254" y="71.855">A</text>
      <text x="177.353" y="86.035">C</text>
      <text x="162.468" y="87.890">U</text>
      <text x="147.583" y="89.745">U</text>
      <text x="132.698" y="91.601">C</text>
      <text x="121.662" y="81.442">U</text>
      <text x="122.282" y="66.454">U</text>
      <text x="122.902" y="51.467">U</text>
      <text x="123.522" y="36.480">U</text>
      <text x="124.142" y="21.493">U</text>
      <text x="124.762" y="6.506">A</text>
      <text x="125.381" y="-8.482">C</text>
      <text x="128.366" y="-27.632">A</text>
    </g>
  </g>
</svg>
