<?xml version="1.0" encoding="UTF-8" standalone="yes"?>
<svg xmlns="http://www.w3.org/2000/svg" height="452" width="452">
<script type="text/ecmascript">
      <![CDATA[
        var shown = 1;
        function click() {
             var seq = document.getElementById("seq");
             if (shown==1) {
               seq.setAttribute("style", "visibility: hidden");
               shown = 0;
             } else {
               seq.setAttribute("style", "visibility: visible");
               shown = 1;
             }
         }
        ]]>
</script>
  <rect style="stroke: white; fill: white" height="452" x="0" y="0" width="452" onclick="click(evt)" />
  <g transform="scale(1.492432,1.492432) translate(5.453796,34.902626)">
    <polyline style="stroke: black; fill: none; stroke-width: 1.5" id="outline" points="
      114.457,12.359
      113.882,27.348
      113.308,42.337
      112.733,57.326
      112.158,72.315
      111.584,87.304
      111.009,102.293
      97.264,102.147
      85.392,107.559
      77.399,116.970
      63.282,111.900
      49.165,106.829
      35.048,101.759
      26.933,87.920
      11.034,85.778
      -0.454,96.977
      1.283,112.926
      14.912,121.390
      29.978,115.876
      44.095,120.946
      58.212,126.017
      72.329,131.087
      73.251,140.407
      77.221,148.889
      67.677,160.462
      58.134,172.034
      48.590,183.606
      39.047,195.179
      23.409,195.131
      11.432,205.185
      8.772,220.595
      16.683,234.084
      31.431,239.282
      46.053,233.736
      53.643,220.065
      50.619,204.722
      60.163,193.150
      69.706,181.578
      79.250,170.005
      88.793,158.433
      100.122,161.784
      112.234,160.135
      122.951,153.447
      130.213,142.611
      132.463,129.346
      147.188,132.202
      161.914,135.058
      176.640,137.914
      191.365,140.769
      192.973,155.800
      198.942,169.687
      208.740,181.198
      221.496,189.307
      236.077,193.295
      251.185,192.806
      265.477,187.884
      277.683,178.967
      286.716,166.847
      291.774,152.603
      292.408,137.500
      288.560,122.882
      280.572,110.049
      269.156,100.141
      255.326,94.040
      240.312,92.288
      225.449,95.041
      212.058,102.055
      201.331,112.704
      194.221,126.044
      179.495,123.188
      164.770,120.332
      150.044,117.476
      135.319,114.620
      125.998,102.867
      126.573,87.878
      127.147,72.889
      127.722,57.900
      128.297,42.911
      128.871,27.922
      129.446,12.933
      132.372,-6.226
    " />
    <g style="stroke: black; stroke-width: 1" id="pairs">
      <line id="1,80" x1="114.457" y1="12.359" x2="129.446" y2="12.933" />
      <line id="2,79" x1="113.882" y1="27.348" x2="128.871" y2="27.922" />
      <line id="3,78" x1="113.308" y1="42.337" x2="128.297" y2="42.911" />
      <line id="4,77" x1="112.733" y1="57.326" x2="127.722" y2="57.900" />
      <line id="5,76" x1="112.158" y1="72.315" x2="127.147" y2="72.889" />
      <line id="6,75" x1="111.584" y1="87.304" x2="126.573" y2="87.878" />
      <line id="7,74" x1="111.009" y1="102.293" x2="125.998" y2="102.867" />
      <line id="10,22" x1="77.399" y1="116.970" x2="72.329" y2="131.087" />
      <line id="11,21" x1="63.282" y1="111.900" x2="58.212" y2="126.017" />
      <line id="12,20" x1="49.165" y1="106.829" x2="44.095" y2="120.946" />
      <line id="13,19" x1="35.048" y1="101.759" x2="29.978" y2="115.876" />
      <line id="24,40" x1="77.221" y1="148.889" x2="88.793" y2="158.433" />
      <line id="25,39" x1="67.677" y1="160.462" x2="79.250" y2="170.005" />
      <line id="26,38" x1="58.134" y1="172.034" x2="69.706" y2="181.578" />
      <line id="27,37" x1="48.590" y1="183.606" x2="60.163" y2="193.150" />
      <line id="28,36" x1="39.047" y1="195.179" x2="50.619" y2="204.722" />
      <line id="45,73" x1="132.463" y1="129.346" x2="135.319" y2="114.620" />
      <line id="46,72" x1="147.188" y1="132.202" x2="150.044" y2="117.476" />
      <line id="47,71" x1="161.914" y1="135.058" x2="164.770" y2="120.332" />
      <line id="48,70" x1="176.640" y1="137.914" x2="179.495" y2="123.188" />
      <line id="49,69" x1="191.365" y1="140.769" x2="194.221" y2="126.044" />
    </g>
    <g style="font-family: SansSerif" transform="translate(-4.6, 4)" id="seq">
      <text x="114.457" y="12.359">G</text>
      <text x="113.882" y="27.348">U</text>
      <text x="113.308" y="42.337">U</text>
      <text x="112.733" y="57.326">U</text>
      <text x="112.158" y="72.315">U</text>
      <text x="111.584" y="87.304">G</text>
      <text x="111.009" y="102.293">G</text>
      <text x="97.264" y="102.147">U</text>
      <text x="85.392" y="107.559">A</text>
      <text x="77.399" y="116.970">G</text>
      <text x="63.282" y="111.900">U</text>
      <text x="49.165" y="106.829">U</text>
      <text x="35.048" y="101.759">U</text>
      <text x="26.933" y="87.920">A</text>
      <text x="11.034" y="85.778">A</text>
      <text x="-0.454" y="96.977">G</text>
      <text x="1.283" y="112.926">A</text>
      <text x="14.912" y="121.390">A</text>
      <text x="29.978" y="115.876">A</text>
      <text x="44.095" y="120.946">A</text>
      <text x="58.212" y="126.017">A</text>
      <text x="72.329" y="131.087">U</text>
      <text x="73.251" y="140.407">G</text>
      <text x="77.221" y="148.889">U</text>
      <text x="67.677" y="160.462">G</text>
      <text x="58.134" y="172.034">U</text>
      <text x="48.590" y="183.606">G</text>
      <text x="39.047" y="195.179">G</text>
      <text x="23.409" y="195.131">C</text>
      <text x="11.432" y="205.185">U</text>
      <text x="8.772" y="220.595">G</text>
      <text x="16.683" y="234.084">U</text>
      <text x="31.431" y="239.282">U</text>
      <text x="46.053" y="233.736">A</text>
      <text x="53.643" y="220.065">A</text>
      <text x="50.619" y="204.722">C</text>
      <text x="60.163" y="193.150">C</text>
      <text x="69.706" y="181.578">A</text>
      <text x="79.250" y="170.005">U</text>
      <text x="88.793" y="158.433">A</text>
      <text x="100.122" y="161.784">G</text>
      <text x="112.234" y="160.135">G</text>
      <text x="122.951" y="153.447">A</text>
      <text x="130.213" y="142.611">U</text>
      <text x="132.463" y="129.346">A</text>
      <text x="147.188" y="132.202">A</text>
      <text x="161.914" y="135.058">G</text>
      <text x="176.640" y="137.914">G</text>
      <text x="191.365" y="140.769">G</text>
      <text x="192.973" y="155.800">G</text>
      <text x="198.942" y="169.687">U</text>
      <text x="208.740" y="181.198">A</text>
      <text x="221.496" y="189.307">G</text>
      <text x="236.077" y="193.295">C</text>
      <text x="251.185" y="192.806">A</text>
      <text x="265.477" y="187.884">A</text>
      <text x="277.683" y="178.967">G</text>
      <text x="286.716" y="166.847">A</text>
      <text x="291.774" y="152.603">A</text>
      <text x="292.408" y="137.500">A</text>
      <text x="288.560" y="122.882">C</text>
      <text x="280.572" y="110.049">G</text>
      <text x="269.156" y="100.141">C</text>
      <text x="255.326" y="94.040">U</text>
      <text x="240.312" y="92.288">U</text>
      <text x="225.449" y="95.041">U</text>
      <text x="212.058" y="102.055">G</text>
      <text x="201.331" y="112.704">U</text>
      <text x="194.221" y="126.044">U</text>
      <text x="179.495" y="123.188">C</text>
      <text x="164.770" y="120.332">C</text>
      <text x="150.044" y="117.476">U</text>
      <text x="135.319" y="114.620">U</text>
      <text x="125.998" y="102.867">U</text>
      <text x="126.573" y="87.878">C</text>
      <text x="127.147" y="72.889">A</text>
      <text x="127.722" y="57.900">A</text>
      <text x="128.297" y="42.911">A</text>
      <text x="128.871" y="27.922">A</text>
      <text x="129.446" y="12.933">U</text>
      <text x="132.372" y="-6.226">G</text>
    </g>
  </g>
</svg>
