<?xml version="1.0" encoding="UTF-8" standalone="yes"?>
<svg xmlns="http://www.w3.org/2000/svg" height="452" width="452">
<script type="text/ecmascript">
      <![CDATA[
        var shown = 1;
        function click() {
             var seq = document.getElementById("seq");
             if (shown==1) {
               seq.setAttribute("style", "visibility: hidden");
               shown = 0;
             } else {
               seq.setAttribute("style", "visibility: visible");
               shown = 1;
             }
         }
        ]]>
</script>
  <rect style="stroke: white; fill: white" height="452" x="0" y="0" width="452" onclick="click(evt)" />
  <g transform="scale(1.550158,1.550158) translate(68.852592,32.433441)">
    <polyline style="stroke: black; fill: none; stroke-width: 1.5" id="outline" points="
      99.608,-9.102
      98.823,5.877
      90.430,18.182
      97.434,32.368
      96.649,47.348
      95.864,62.327
      95.079,77.307
      94.294,92.286
      78.930,98.894
      68.405,111.892
      65.136,128.293
      50.647,132.176
      36.158,136.058
      21.669,139.940
      8.109,131.822
      -7.199,135.751
      -15.173,149.396
      -11.083,164.662
      2.646,172.491
      17.868,168.240
      25.552,154.429
      40.041,150.547
      54.529,146.665
      69.018,142.782
      84.975,158.216
      107.012,160.904
      113.113,174.607
      119.214,188.311
      125.315,202.014
      131.416,215.717
      124.399,229.692
      128.056,244.896
      140.662,254.150
      156.263,253.085
      167.494,242.203
      169.051,226.644
      160.200,213.752
      145.119,209.616
      139.018,195.913
      132.917,182.210
      126.816,168.506
      120.715,154.803
      126.988,148.844
      131.603,141.524
      134.274,133.294
      134.839,124.659
      133.262,116.151
      129.641,108.293
      124.197,101.567
      117.266,96.387
      109.274,93.071
      110.059,78.092
      110.844,63.112
      111.629,48.133
      112.414,33.154
      120.863,19.777
      113.802,6.662
      114.587,-8.317
      117.783,-27.433
    " />
    <g style="stroke: black; stroke-width: 1" id="pairs">
      <line id="1,58" x1="99.608" y1="-9.102" x2="114.587" y2="-8.317" />
      <line id="2,57" x1="98.823" y1=" 5.877" x2="113.802" y2=" 6.662" />
      <line id="4,55" x1="97.434" y1="32.368" x2="112.414" y2="33.154" />
      <line id="5,54" x1="96.649" y1="47.348" x2="111.629" y2="48.133" />
      <line id="6,53" x1="95.864" y1="62.327" x2="110.844" y2="63.112" />
      <line id="7,52" x1="95.079" y1="77.307" x2="110.059" y2="78.092" />
      <line id="8,51" x1="94.294" y1="92.286" x2="109.274" y2="93.071" />
      <line id="11,24" x1="65.136" y1="128.293" x2="69.018" y2="142.782" />
      <line id="12,23" x1="50.647" y1="132.176" x2="54.529" y2="146.665" />
      <line id="13,22" x1="36.158" y1="136.058" x2="40.041" y2="150.547" />
      <line id="14,21" x1="21.669" y1="139.940" x2="25.552" y2="154.429" />
      <line id="26,42" x1="107.012" y1="160.904" x2="120.715" y2="154.803" />
      <line id="27,41" x1="113.113" y1="174.607" x2="126.816" y2="168.506" />
      <line id="28,40" x1="119.214" y1="188.311" x2="132.917" y2="182.210" />
      <line id="29,39" x1="125.315" y1="202.014" x2="139.018" y2="195.913" />
      <line id="30,38" x1="131.416" y1="215.717" x2="145.119" y2="209.616" />
    </g>
    <g style="font-family: SansSerif" transform="translate(-4.6, 4)" id="seq">
      <text x="99.608" y="-9.102">C</text>
      <text x="98.823" y="5.877">G</text>
      <text x="90.430" y="18.182">A</text>
      <text x="97.434" y="32.368">U</text>
      <text x="96.649" y="47.348">U</text>
      <text x="95.864" y="62.327">U</text>
      <text x="95.079" y="77.307">C</text>
      <text x="94.294" y="92.286">A</text>
      <text x="78.930" y="98.894">U</text>
      <text x="68.405" y="111.892">A</text>
      <text x="65.136" y="128.293">G</text>
      <text x="50.647" y="132.176">U</text>
      <text x="36.158" y="136.058">U</text>
      <text x="21.669" y="139.940">U</text>
      <text x="8.109" y="131.822">A</text>
      <text x="-7.199" y="135.751">A</text>
      <text x="-15.173" y="149.396">U</text>
      <text x="-11.083" y="164.662">A</text>
      <text x="2.646" y="172.491">U</text>
      <text x="17.868" y="168.240">A</text>
      <text x="25.552" y="154.429">A</text>
      <text x="40.041" y="150.547">A</text>
      <text x="54.529" y="146.665">A</text>
      <text x="69.018" y="142.782">U</text>
      <text x="84.975" y="158.216">U</text>
      <text x="107.012" y="160.904">U</text>
      <text x="113.113" y="174.607">U</text>
      <text x="119.214" y="188.311">A</text>
      <text x="125.315" y="202.014">G</text>
      <text x="131.416" y="215.717">C</text>
      <text x="124.399" y="229.692">C</text>
      <text x="128.056" y="244.896">U</text>
      <text x="140.662" y="254.150">U</text>
      <text x="156.263" y="253.085">G</text>
      <text x="167.494" y="242.203">G</text>
      <text x="169.051" y="226.644">G</text>
      <text x="160.200" y="213.752">U</text>
      <text x="145.119" y="209.616">G</text>
      <text x="139.018" y="195.913">C</text>
      <text x="132.917" y="182.210">U</text>
      <text x="126.816" y="168.506">A</text>
      <text x="120.715" y="154.803">G</text>
      <text x="126.988" y="148.844">A</text>
      <text x="131.603" y="141.524">G</text>
      <text x="134.274" y="133.294">A</text>
      <text x="134.839" y="124.659">U</text>
      <text x="133.262" y="116.151">C</text>
      <text x="129.641" y="108.293">U</text>
      <text x="124.197" y="101.567">U</text>
      <text x="117.266" y="96.387">U</text>
      <text x="109.274" y="93.071">U</text>
      <text x="110.059" y="78.092">G</text>
      <text x="110.844" y="63.112">G</text>
      <text x="111.629" y="48.133">G</text>
      <text x="112.414" y="33.154">A</text>
      <text x="120.863" y="19.777">G</text>
      <text x="113.802" y="6.662">U</text>
      <text x="114.587" y="-8.317">G</text>
      <text x="117.783" y="-27.433">A</text>
    </g>
  </g>
</svg>
