<?xml version="1.0" encoding="UTF-8" standalone="yes"?>
<svg xmlns="http://www.w3.org/2000/svg" height="452" width="452">
<script type="text/ecmascript">
      <![CDATA[
        var shown = 1;
        function click() {
             var seq = document.getElementById("seq");
             if (shown==1) {
               seq.setAttribute("style", "visibility: hidden");
               shown = 0;
             } else {
               seq.setAttribute("style", "visibility: visible");
               shown = 1;
             }
         }
        ]]>
</script>
  <rect style="stroke: white; fill: white" height="452" x="0" y="0" width="452" onclick="click(evt)" />
  <g transform="scale(1.654078,1.654078) translate(-1.195808,25.815742)">
    <polyline style="stroke: black; fill: none; stroke-width: 1.5" id="outline" points="
      115.060,-2.338
      114.396,12.648
      113.733,27.633
      113.069,42.618
      112.406,57.604
      111.742,72.589
      111.079,87.574
      98.795,87.050
      87.485,90.674
      78.456,97.728
      72.645,107.113
      65.939,92.986
      51.700,86.522
      36.651,90.773
      27.898,103.731
      29.574,119.278
      40.887,130.074
      56.496,131.021
      69.031,121.671
      70.242,130.211
      73.762,138.085
      79.317,144.683
      72.301,157.941
      65.285,171.199
      58.269,184.457
      51.253,197.715
      35.926,200.819
      26.221,213.081
      26.720,228.710
      37.188,240.328
      52.681,242.448
      65.884,234.070
      70.564,219.149
      64.511,204.731
      71.527,191.473
      78.543,178.215
      85.559,164.957
      92.575,151.699
      105.127,153.157
      117.608,149.433
      127.905,140.840
      134.155,128.538
      135.073,114.382
      143.744,118.175
      150.721,115.074
      165.718,115.406
      180.714,115.738
      195.710,116.070
      203.674,129.283
      217.527,136.073
      232.849,134.272
      244.751,124.456
      249.434,109.757
      245.405,94.865
      233.950,84.532
      218.722,82.056
      204.582,88.226
      196.042,101.074
      181.046,100.742
      166.050,100.410
      151.053,100.078
      136.068,99.415
      126.064,88.238
      126.727,73.253
      127.391,58.267
      128.054,43.282
      128.718,28.297
      129.381,13.311
      130.045,-1.674
      133.085,-20.816
    " />
    <g style="stroke: black; stroke-width: 1" id="pairs">
      <line id="1,69" x1="115.060" y1="-2.338" x2="130.045" y2="-1.674" />
      <line id="2,68" x1="114.396" y1="12.648" x2="129.381" y2="13.311" />
      <line id="3,67" x1="113.733" y1="27.633" x2="128.718" y2="28.297" />
      <line id="4,66" x1="113.069" y1="42.618" x2="128.054" y2="43.282" />
      <line id="5,65" x1="112.406" y1="57.604" x2="127.391" y2="58.267" />
      <line id="6,64" x1="111.742" y1="72.589" x2="126.727" y2="73.253" />
      <line id="7,63" x1="111.079" y1="87.574" x2="126.064" y2="88.238" />
      <line id="11,19" x1="72.645" y1="107.113" x2="69.031" y2="121.671" />
      <line id="22,38" x1="79.317" y1="144.683" x2="92.575" y2="151.699" />
      <line id="23,37" x1="72.301" y1="157.941" x2="85.559" y2="164.957" />
      <line id="24,36" x1="65.285" y1="171.199" x2="78.543" y2="178.215" />
      <line id="25,35" x1="58.269" y1="184.457" x2="71.527" y2="191.473" />
      <line id="26,34" x1="51.253" y1="197.715" x2="64.511" y2="204.731" />
      <line id="43,62" x1="135.073" y1="114.382" x2="136.068" y2="99.415" />
      <line id="45,61" x1="150.721" y1="115.074" x2="151.053" y2="100.078" />
      <line id="46,60" x1="165.718" y1="115.406" x2="166.050" y2="100.410" />
      <line id="47,59" x1="180.714" y1="115.738" x2="181.046" y2="100.742" />
      <line id="48,58" x1="195.710" y1="116.070" x2="196.042" y2="101.074" />
    </g>
    <g style="font-family: SansSerif" transform="translate(-4.6, 4)" id="seq">
      <text x="115.060" y="-2.338">A</text>
      <text x="114.396" y="12.648">A</text>
      <text x="113.733" y="27.633">U</text>
      <text x="113.069" y="42.618">U</text>
      <text x="112.406" y="57.604">G</text>
      <text x="111.742" y="72.589">A</text>
      <text x="111.079" y="87.574">A</text>
      <text x="98.795" y="87.050">A</text>
      <text x="87.485" y="90.674">C</text>
      <text x="78.456" y="97.728">U</text>
      <text x="72.645" y="107.113">U</text>
      <text x="65.939" y="92.986">U</text>
      <text x="51.700" y="86.522">G</text>
      <text x="36.651" y="90.773">A</text>
      <text x="27.898" y="103.731">A</text>
      <text x="29.574" y="119.278">G</text>
      <text x="40.887" y="130.074">U</text>
      <text x="56.496" y="131.021">C</text>
      <text x="69.031" y="121.671">A</text>
      <text x="70.242" y="130.211">U</text>
      <text x="73.762" y="138.085">U</text>
      <text x="79.317" y="144.683">U</text>
      <text x="72.301" y="157.941">A</text>
      <text x="65.285" y="171.199">G</text>
      <text x="58.269" y="184.457">C</text>
      <text x="51.253" y="197.715">C</text>
      <text x="35.926" y="200.819">C</text>
      <text x="26.221" y="213.081">U</text>
      <text x="26.720" y="228.710">U</text>
      <text x="37.188" y="240.328">C</text>
      <text x="52.681" y="242.448">U</text>
      <text x="65.884" y="234.070">A</text>
      <text x="70.564" y="219.149">A</text>
      <text x="64.511" y="204.731">G</text>
      <text x="71.527" y="191.473">G</text>
      <text x="78.543" y="178.215">C</text>
      <text x="85.559" y="164.957">U</text>
      <text x="92.575" y="151.699">A</text>
      <text x="105.127" y="153.157">U</text>
      <text x="117.608" y="149.433">U</text>
      <text x="127.905" y="140.840">G</text>
      <text x="134.155" y="128.538">U</text>
      <text x="135.073" y="114.382">G</text>
      <text x="143.744" y="118.175">G</text>
      <text x="150.721" y="115.074">G</text>
      <text x="165.718" y="115.406">G</text>
      <text x="180.714" y="115.738">U</text>
      <text x="195.710" y="116.070">A</text>
      <text x="203.674" y="129.283">G</text>
      <text x="217.527" y="136.073">C</text>
      <text x="232.849" y="134.272">U</text>
      <text x="244.751" y="124.456">C</text>
      <text x="249.434" y="109.757">A</text>
      <text x="245.405" y="94.865">A</text>
      <text x="233.950" y="84.532">A</text>
      <text x="218.722" y="82.056">A</text>
      <text x="204.582" y="88.226">C</text>
      <text x="196.042" y="101.074">U</text>
      <text x="181.046" y="100.742">A</text>
      <text x="166.050" y="100.410">U</text>
      <text x="151.053" y="100.078">U</text>
      <text x="136.068" y="99.415">C</text>
      <text x="126.064" y="88.238">U</text>
      <text x="126.727" y="73.253">U</text>
      <text x="127.391" y="58.267">C</text>
      <text x="128.054" y="43.282">A</text>
      <text x="128.718" y="28.297">A</text>
      <text x="129.381" y="13.311">U</text>
      <text x="130.045" y="-1.674">U</text>
      <text x="133.085" y="-20.816">A</text>
    </g>
  </g>
</svg>
