<?xml version="1.0" encoding="UTF-8" standalone="yes"?>
<svg xmlns="http://www.w3.org/2000/svg" height="452" width="452">
<script type="text/ecmascript">
      <![CDATA[
        var shown = 1;
        function click() {
             var seq = document.getElementById("seq");
             if (shown==1) {
               seq.setAttribute("style", "visibility: hidden");
               shown = 0;
             } else {
               seq.setAttribute("style", "visibility: visible");
               shown = 1;
             }
         }
        ]]>
</script>
  <rect style="stroke: white; fill: white" height="452" x="0" y="0" width="452" onclick="click(evt)" />
  <g transform="scale(1.474973,1.474973) translate(41.015442,57.368355)">
    <polyline style="stroke: black; fill: none; stroke-width: 1.5" id="outline" points="
      110.211,-33.848
      109.583,-18.861
      108.955,-3.874
      108.327,11.113
      107.699,26.100
      107.070,41.087
      106.442,56.073
      91.170,58.455
      79.051,66.731
      72.068,78.746
      57.334,75.935
      42.600,73.125
      27.865,70.314
      19.190,57.103
      3.698,53.978
      -9.420,62.792
      -12.381,78.316
      -3.429,91.341
      12.126,94.138
      25.055,85.048
      39.789,87.859
      54.523,90.670
      69.257,93.480
      74.351,108.750
      86.454,119.364
      83.336,134.036
      80.217,148.708
      67.246,157.333
      64.292,172.257
      72.594,184.570
      69.476,199.242
      55.584,206.423
      49.607,220.873
      54.365,235.769
      67.613,244.078
      83.095,241.876
      93.501,230.203
      93.917,214.571
      84.148,202.361
      87.267,187.689
      99.859,179.817
      103.231,164.982
      94.889,151.827
      98.008,137.155
      101.127,122.482
      112.418,121.069
      122.796,115.517
      130.751,106.320
      135.017,94.516
      134.768,81.578
      149.607,79.386
      164.446,77.195
      179.285,75.004
      194.124,72.813
      205.697,83.329
      221.324,83.895
      233.627,74.243
      236.797,58.930
      229.336,45.187
      214.769,39.502
      199.972,44.561
      191.933,57.974
      177.094,60.165
      162.254,62.356
      147.415,64.547
      132.576,66.738
      121.429,56.702
      122.057,41.715
      122.685,26.728
      123.313,11.741
      123.942,-3.246
      124.570,-18.233
      125.198,-33.220
      128.193,-52.368
    " />
    <g style="stroke: black; stroke-width: 1" id="pairs">
      <line id="1,73" x1="110.211" y1="-33.848" x2="125.198" y2="-33.220" />
      <line id="2,72" x1="109.583" y1="-18.861" x2="124.570" y2="-18.233" />
      <line id="3,71" x1="108.955" y1="-3.874" x2="123.942" y2="-3.246" />
      <line id="4,70" x1="108.327" y1="11.113" x2="123.313" y2="11.741" />
      <line id="5,69" x1="107.699" y1="26.100" x2="122.685" y2="26.728" />
      <line id="6,68" x1="107.070" y1="41.087" x2="122.057" y2="41.715" />
      <line id="7,67" x1="106.442" y1="56.073" x2="121.429" y2="56.702" />
      <line id="10,23" x1="72.068" y1="78.746" x2="69.257" y2="93.480" />
      <line id="11,22" x1="57.334" y1="75.935" x2="54.523" y2="90.670" />
      <line id="12,21" x1="42.600" y1="73.125" x2="39.789" y2="87.859" />
      <line id="13,20" x1="27.865" y1="70.314" x2="25.055" y2="85.048" />
      <line id="25,45" x1="86.454" y1="119.364" x2="101.127" y2="122.482" />
      <line id="26,44" x1="83.336" y1="134.036" x2="98.008" y2="137.155" />
      <line id="27,43" x1="80.217" y1="148.708" x2="94.889" y2="151.827" />
      <line id="30,40" x1="72.594" y1="184.570" x2="87.267" y2="187.689" />
      <line id="31,39" x1="69.476" y1="199.242" x2="84.148" y2="202.361" />
      <line id="50,66" x1="134.768" y1="81.578" x2="132.576" y2="66.738" />
      <line id="51,65" x1="149.607" y1="79.386" x2="147.415" y2="64.547" />
      <line id="52,64" x1="164.446" y1="77.195" x2="162.254" y2="62.356" />
      <line id="53,63" x1="179.285" y1="75.004" x2="177.094" y2="60.165" />
      <line id="54,62" x1="194.124" y1="72.813" x2="191.933" y2="57.974" />
    </g>
    <g style="font-family: SansSerif" transform="translate(-4.6, 4)" id="seq">
      <text x="110.211" y="-33.848">A</text>
      <text x="109.583" y="-18.861">A</text>
      <text x="108.955" y="-3.874">U</text>
      <text x="108.327" y="11.113">U</text>
      <text x="107.699" y="26.100">U</text>
      <text x="107.070" y="41.087">U</text>
      <text x="106.442" y="56.073">A</text>
      <text x="91.170" y="58.455">U</text>
      <text x="79.051" y="66.731">G</text>
      <text x="72.068" y="78.746">U</text>
      <text x="57.334" y="75.935">C</text>
      <text x="42.600" y="73.125">U</text>
      <text x="27.865" y="70.314">A</text>
      <text x="19.190" y="57.103">G</text>
      <text x="3.698" y="53.978">G</text>
      <text x="-9.420" y="62.792">G</text>
      <text x="-12.381" y="78.316">U</text>
      <text x="-3.429" y="91.341">U</text>
      <text x="12.126" y="94.138">U</text>
      <text x="25.055" y="85.048">U</text>
      <text x="39.789" y="87.859">A</text>
      <text x="54.523" y="90.670">G</text>
      <text x="69.257" y="93.480">G</text>
      <text x="74.351" y="108.750">C</text>
      <text x="86.454" y="119.364">C</text>
      <text x="83.336" y="134.036">U</text>
      <text x="80.217" y="148.708">U</text>
      <text x="67.246" y="157.333">A</text>
      <text x="64.292" y="172.257">A</text>
      <text x="72.594" y="184.570">G</text>
      <text x="69.476" y="199.242">U</text>
      <text x="55.584" y="206.423">U</text>
      <text x="49.607" y="220.873">U</text>
      <text x="54.365" y="235.769">U</text>
      <text x="67.613" y="244.078">G</text>
      <text x="83.095" y="241.876">A</text>
      <text x="93.501" y="230.203">A</text>
      <text x="93.917" y="214.571">A</text>
      <text x="84.148" y="202.361">G</text>
      <text x="87.267" y="187.689">C</text>
      <text x="99.859" y="179.817">U</text>
      <text x="103.231" y="164.982">U</text>
      <text x="94.889" y="151.827">A</text>
      <text x="98.008" y="137.155">A</text>
      <text x="101.127" y="122.482">G</text>
      <text x="112.418" y="121.069">U</text>
      <text x="122.796" y="115.517">U</text>
      <text x="130.751" y="106.320">U</text>
      <text x="135.017" y="94.516">U</text>
      <text x="134.768" y="81.578">A</text>
      <text x="149.607" y="79.386">G</text>
      <text x="164.446" y="77.195">G</text>
      <text x="179.285" y="75.004">A</text>
      <text x="194.124" y="72.813">G</text>
      <text x="205.697" y="83.329">U</text>
      <text x="221.324" y="83.895">U</text>
      <text x="233.627" y="74.243">C</text>
      <text x="236.797" y="58.930">A</text>
      <text x="229.336" y="45.187">A</text>
      <text x="214.769" y="39.502">C</text>
      <text x="199.972" y="44.561">U</text>
      <text x="191.933" y="57.974">C</text>
      <text x="177.094" y="60.165">U</text>
      <text x="162.254" y="62.356">C</text>
      <text x="147.415" y="64.547">C</text>
      <text x="132.576" y="66.738">U</text>
      <text x="121.429" y="56.702">U</text>
      <text x="122.057" y="41.715">G</text>
      <text x="122.685" y="26.728">G</text>
      <text x="123.313" y="11.741">A</text>
      <text x="123.942" y="-3.246">A</text>
      <text x="124.570" y="-18.233">U</text>
      <text x="125.198" y="-33.220">U</text>
      <text x="128.193" y="-52.368">C</text>
    </g>
  </g>
</svg>
