<?xml version="1.0" encoding="UTF-8" standalone="yes"?>
<svg xmlns="http://www.w3.org/2000/svg" height="452" width="452">
<script type="text/ecmascript">
      <![CDATA[
        var shown = 1;
        function click() {
             var seq = document.getElementById("seq");
             if (shown==1) {
               seq.setAttribute("style", "visibility: hidden");
               shown = 0;
             } else {
               seq.setAttribute("style", "visibility: visible");
               shown = 1;
             }
         }
        ]]>
</script>
  <rect style="stroke: white; fill: white" height="452" x="0" y="0" width="452" onclick="click(evt)" />
  <g transform="scale(1.596302,1.596302) translate(29.716736,35.097862)">
    <polyline style="stroke: black; fill: none; stroke-width: 1.5" id="outline" points="
      111.870,-11.643
      111.188,3.342
      110.505,18.326
      109.822,33.311
      109.140,48.295
      108.457,63.279
      107.774,78.264
      91.472,80.268
      78.632,89.119
      71.741,102.179
      56.838,100.476
      41.935,98.772
      27.032,97.068
      15.965,85.454
      -0.003,87.010
      -8.621,100.541
      -3.279,115.669
      11.925,120.788
      25.329,111.971
      40.232,113.675
      55.135,115.379
      70.038,117.082
      75.291,130.400
      86.081,139.810
      82.695,154.423
      79.310,169.036
      75.925,183.649
      72.539,198.262
      58.520,205.189
      52.280,219.528
      56.766,234.508
      69.861,243.057
      85.380,241.137
      95.997,229.656
      96.698,214.034
      87.152,201.648
      90.538,187.035
      93.923,172.422
      97.308,157.809
      100.694,143.196
      111.646,142.019
      121.811,136.876
      129.757,128.195
      134.265,116.917
      134.509,104.397
      149.474,103.373
      164.439,102.350
      179.404,101.326
      194.369,100.302
      206.115,110.877
      221.893,109.965
      232.342,98.108
      231.264,82.341
      219.297,72.017
      203.542,73.262
      193.345,85.337
      178.380,86.361
      163.415,87.385
      148.450,88.408
      133.485,89.432
      122.759,78.947
      123.441,63.962
      124.124,48.978
      124.807,33.993
      125.489,19.009
      126.172,4.024
      126.855,-10.960
      129.920,-30.098
    " />
    <g style="stroke: black; stroke-width: 1" id="pairs">
      <line id="1,67" x1="111.870" y1="-11.643" x2="126.855" y2="-10.960" />
      <line id="2,66" x1="111.188" y1=" 3.342" x2="126.172" y2=" 4.024" />
      <line id="3,65" x1="110.505" y1="18.326" x2="125.489" y2="19.009" />
      <line id="4,64" x1="109.822" y1="33.311" x2="124.807" y2="33.993" />
      <line id="5,63" x1="109.140" y1="48.295" x2="124.124" y2="48.978" />
      <line id="6,62" x1="108.457" y1="63.279" x2="123.441" y2="63.962" />
      <line id="7,61" x1="107.774" y1="78.264" x2="122.759" y2="78.947" />
      <line id="10,22" x1="71.741" y1="102.179" x2="70.038" y2="117.082" />
      <line id="11,21" x1="56.838" y1="100.476" x2="55.135" y2="115.379" />
      <line id="12,20" x1="41.935" y1="98.772" x2="40.232" y2="113.675" />
      <line id="13,19" x1="27.032" y1="97.068" x2="25.329" y2="111.971" />
      <line id="24,40" x1="86.081" y1="139.810" x2="100.694" y2="143.196" />
      <line id="25,39" x1="82.695" y1="154.423" x2="97.308" y2="157.809" />
      <line id="26,38" x1="79.310" y1="169.036" x2="93.923" y2="172.422" />
      <line id="27,37" x1="75.925" y1="183.649" x2="90.538" y2="187.035" />
      <line id="28,36" x1="72.539" y1="198.262" x2="87.152" y2="201.648" />
      <line id="45,60" x1="134.509" y1="104.397" x2="133.485" y2="89.432" />
      <line id="46,59" x1="149.474" y1="103.373" x2="148.450" y2="88.408" />
      <line id="47,58" x1="164.439" y1="102.350" x2="163.415" y2="87.385" />
      <line id="48,57" x1="179.404" y1="101.326" x2="178.380" y2="86.361" />
      <line id="49,56" x1="194.369" y1="100.302" x2="193.345" y2="85.337" />
    </g>
    <g style="font-family: SansSerif" transform="translate(-4.6, 4)" id="seq">
      <text x="111.870" y="-11.643">G</text>
      <text x="111.188" y="3.342">A</text>
      <text x="110.505" y="18.326">A</text>
      <text x="109.822" y="33.311">A</text>
      <text x="109.140" y="48.295">A</text>
      <text x="108.457" y="63.279">A</text>
      <text x="107.774" y="78.264">A</text>
      <text x="91.472" y="80.268">U</text>
      <text x="78.632" y="89.119">A</text>
      <text x="71.741" y="102.179">G</text>
      <text x="56.838" y="100.476">U</text>
      <text x="41.935" y="98.772">A</text>
      <text x="27.032" y="97.068">U</text>
      <text x="15.965" y="85.454">A</text>
      <text x="-0.003" y="87.010">A</text>
      <text x="-8.621" y="100.541">G</text>
      <text x="-3.279" y="115.669">A</text>
      <text x="11.925" y="120.788">A</text>
      <text x="25.329" y="111.971">G</text>
      <text x="40.232" y="113.675">U</text>
      <text x="55.135" y="115.379">A</text>
      <text x="70.038" y="117.082">C</text>
      <text x="75.291" y="130.400">U</text>
      <text x="86.081" y="139.810">U</text>
      <text x="82.695" y="154.423">U</text>
      <text x="79.310" y="169.036">U</text>
      <text x="75.925" y="183.649">C</text>
      <text x="72.539" y="198.262">G</text>
      <text x="58.520" y="205.189">U</text>
      <text x="52.280" y="219.528">U</text>
      <text x="56.766" y="234.508">U</text>
      <text x="69.861" y="243.057">A</text>
      <text x="85.380" y="241.137">C</text>
      <text x="95.997" y="229.656">A</text>
      <text x="96.698" y="214.034">C</text>
      <text x="87.152" y="201.648">C</text>
      <text x="90.538" y="187.035">G</text>
      <text x="93.923" y="172.422">A</text>
      <text x="97.308" y="157.809">A</text>
      <text x="100.694" y="143.196">A</text>
      <text x="111.646" y="142.019">G</text>
      <text x="121.811" y="136.876">G</text>
      <text x="129.757" y="128.195">G</text>
      <text x="134.265" y="116.917">U</text>
      <text x="134.509" y="104.397">U</text>
      <text x="149.474" y="103.373">U</text>
      <text x="164.439" y="102.350">A</text>
      <text x="179.404" y="101.326">G</text>
      <text x="194.369" y="100.302">A</text>
      <text x="206.115" y="110.877">G</text>
      <text x="221.893" y="109.965">U</text>
      <text x="232.342" y="98.108">U</text>
      <text x="231.264" y="82.341">A</text>
      <text x="219.297" y="72.017">U</text>
      <text x="203.542" y="73.262">U</text>
      <text x="193.345" y="85.337">U</text>
      <text x="178.380" y="86.361">C</text>
      <text x="163.415" y="87.385">U</text>
      <text x="148.450" y="88.408">A</text>
      <text x="133.485" y="89.432">G</text>
      <text x="122.759" y="78.947">U</text>
      <text x="123.441" y="63.962">U</text>
      <text x="124.124" y="48.978">U</text>
      <text x="124.807" y="33.993">U</text>
      <text x="125.489" y="19.009">U</text>
      <text x="126.172" y="4.024">U</text>
      <text x="126.855" y="-10.960">C</text>
      <text x="129.920" y="-30.098">A</text>
    </g>
  </g>
</svg>
